Preview_AmtelvarRoman-11-opsz_8.00_wght_900.00_wdth_125.00.ufo
<glyph name="exclam" format="2">
  <advance width="789"/>
  <unicode hex="0021"/>
  <outline>
    <contour>
      <point x="155.0" y="192.0" type="qcurve" smooth="yes"/>
      <point x="155.0" y="281.0"/>
      <point x="289.0" y="407.0"/>
      <point x="394.0" y="407.0" type="qcurve" smooth="yes"/>
      <point x="499.0" y="407.0"/>
      <point x="633.0" y="281.0"/>
      <point x="633.0" y="192.0" type="qcurve" smooth="yes"/>
      <point x="633.0" y="104.0"/>
      <point x="499.0" y="-22.0"/>
      <point x="394.0" y="-22.0" type="qcurve" smooth="yes"/>
      <point x="289.0" y="-22.0"/>
      <point x="155.0" y="104.0"/>
    </contour>
    <contour>
      <point x="126.0" y="1278.0" type="line" smooth="yes"/>
      <point x="117.0" y="1363.0"/>
      <point x="296.0" y="1478.0"/>
      <point x="388.0" y="1478.0" type="qcurve" smooth="yes"/>
      <point x="481.0" y="1479.0"/>
      <point x="667.0" y="1363.0"/>
      <point x="657.0" y="1278.0" type="qcurve" smooth="yes"/>
      <point x="625.0" y="1068.0" type="line"/>
      <point x="534.0" y="760.0" type="line"/>
      <point x="478.0" y="525.0" type="line"/>
      <point x="304.0" y="525.0" type="line"/>
      <point x="248.0" y="760.0" type="line"/>
      <point x="158.0" y="1068.0" type="line"/>
    </contour>
  </outline>
</glyph>
<glyph name="numbersign" format="2">
  <advance width="1548"/>
  <unicode hex="0023"/>
  <outline>
    <contour>
      <point x="75.0" y="293.0" type="line"/>
      <point x="75.0" y="560.0" type="line"/>
      <point x="1322.0" y="560.0" type="line"/>
      <point x="1322.0" y="293.0" type="line"/>
    </contour>
    <contour>
      <point x="190.0" y="934.0" type="line"/>
      <point x="190.0" y="1201.0" type="line"/>
      <point x="1473.0" y="1201.0" type="line"/>
      <point x="1473.0" y="934.0" type="line"/>
    </contour>
    <contour>
      <point x="157.0" y="10.0" type="line"/>
      <point x="610.0" y="1418.0" type="line"/>
      <point x="759.0" y="1398.0" type="line"/>
      <point x="305.0" y="-10.0" type="line"/>
    </contour>
    <contour>
      <point x="742.0" y="10.0" type="line"/>
      <point x="1197.0" y="1418.0" type="line"/>
      <point x="1344.0" y="1398.0" type="line"/>
      <point x="889.0" y="-10.0" type="line"/>
    </contour>
  </outline>
</glyph>
<glyph name="parenright" format="2">
  <advance width="1022"/>
  <unicode hex="0029"/>
  <outline>
    <contour>
      <point x="944.0" y="507.0" type="qcurve" smooth="yes"/>
      <point x="944.0" y="192.0"/>
      <point x="497.0" y="-372.0"/>
      <point x="186.0" y="-509.0" type="qcurve"/>
      <point x="52.0" y="-378.0" type="line"/>
      <point x="188.0" y="-242.0"/>
      <point x="410.0" y="197.0"/>
      <point x="410.0" y="508.0" type="qcurve" smooth="yes"/>
      <point x="410.0" y="814.0"/>
      <point x="198.0" y="1281.0"/>
      <point x="53.0" y="1405.0" type="qcurve"/>
      <point x="199.0" y="1524.0" type="line"/>
      <point x="499.0" y="1400.0"/>
      <point x="944.0" y="821.0"/>
    </contour>
  </outline>
</glyph>
<glyph name="plus" format="2">
  <advance width="1334"/>
  <unicode hex="002B"/>
  <outline>
    <contour>
      <point x="80.0" y="485.0" type="line"/>
      <point x="80.0" y="779.0" type="line"/>
      <point x="1255.0" y="779.0" type="line"/>
      <point x="1255.0" y="485.0" type="line"/>
    </contour>
    <contour>
      <point x="494.0" y="121.0" type="line"/>
      <point x="494.0" y="1143.0" type="line"/>
      <point x="842.0" y="1143.0" type="line"/>
      <point x="842.0" y="121.0" type="line"/>
    </contour>
  </outline>
</glyph>
<glyph name="zero" format="2">
  <advance width="1717"/>
  <unicode hex="0030"/>
  <outline>
    <contour>
      <point x="79.0" y="753.0" type="qcurve" smooth="yes"/>
      <point x="79.0" y="1125.0"/>
      <point x="510.0" y="1525.0"/>
      <point x="862.0" y="1525.0" type="qcurve" smooth="yes"/>
      <point x="1220.0" y="1525.0"/>
      <point x="1638.0" y="1130.0"/>
      <point x="1638.0" y="756.0" type="qcurve" smooth="yes"/>
      <point x="1638.0" y="381.0"/>
      <point x="1227.0" y="-34.0"/>
      <point x="869.0" y="-34.0" type="qcurve" smooth="yes"/>
      <point x="511.0" y="-34.0"/>
      <point x="79.0" y="373.0"/>
    </contour>
    <contour>
      <point x="621.0" y="769.0" type="qcurve" smooth="yes"/>
      <point x="622.0" y="368.0"/>
      <point x="714.0" y="175.0"/>
      <point x="859.0" y="175.0" type="qcurve" smooth="yes"/>
      <point x="997.0" y="175.0"/>
      <point x="1096.0" y="363.0"/>
      <point x="1096.0" y="755.0" type="qcurve" smooth="yes"/>
      <point x="1096.0" y="1135.0"/>
      <point x="989.0" y="1320.0"/>
      <point x="860.0" y="1320.0" type="qcurve" smooth="yes"/>
      <point x="725.0" y="1320.0"/>
      <point x="621.0" y="1152.0"/>
    </contour>
  </outline>
</glyph>
<glyph name="two" format="2">
  <advance width="1735"/>
  <unicode hex="0032"/>
  <outline>
    <contour>
      <point x="112.0" y="0.0" type="line"/>
      <point x="112.0" y="157.0" type="line"/>
      <point x="117.0" y="290.0"/>
      <point x="360.0" y="596.0"/>
      <point x="594.0" y="704.0" type="qcurve" smooth="yes"/>
      <point x="791.0" y="786.0"/>
      <point x="972.0" y="945.0"/>
      <point x="972.0" y="1057.0" type="qcurve" smooth="yes"/>
      <point x="972.0" y="1146.0"/>
      <point x="810.0" y="1220.0"/>
      <point x="639.0" y="1220.0" type="qcurve" smooth="yes"/>
      <point x="546.0" y="1220.0"/>
      <point x="324.0" y="1158.0"/>
      <point x="233.0" y="1103.0" type="qcurve"/>
      <point x="141.0" y="1323.0" type="line"/>
      <point x="240.0" y="1397.0"/>
      <point x="635.0" y="1526.0"/>
      <point x="873.0" y="1526.0" type="qcurve" smooth="yes"/>
      <point x="1201.0" y="1526.0"/>
      <point x="1513.0" y="1308.0"/>
      <point x="1518.0" y="1133.0" type="qcurve" smooth="yes"/>
      <point x="1524.0" y="952.0"/>
      <point x="1365.0" y="758.0"/>
      <point x="990.0" y="592.0" type="qcurve" smooth="yes"/>
      <point x="723.0" y="491.0"/>
      <point x="515.0" y="415.0"/>
      <point x="482.0" y="358.0" type="qcurve"/>
      <point x="481.0" y="339.0" type="line"/>
      <point x="1544.0" y="339.0" type="line"/>
      <point x="1544.0" y="0.0" type="line"/>
    </contour>
  </outline>
</glyph>
<glyph name="less" format="2">
  <advance width="1297"/>
  <unicode hex="003C"/>
  <outline>
    <contour>
      <point x="86.0" y="634.0" type="qcurve"/>
      <point x="87.0" y="634.0"/>
      <point x="874.0" y="1106.0"/>
      <point x="970.0" y="1170.0" type="qcurve" smooth="yes"/>
      <point x="1078.0" y="1247.0"/>
      <point x="1218.0" y="1016.0"/>
      <point x="1122.0" y="937.0" type="qcurve" smooth="yes"/>
      <point x="990.0" y="846.0"/>
      <point x="722.0" y="686.0"/>
      <point x="628.0" y="637.0" type="qcurve"/>
      <point x="712.0" y="597.0"/>
      <point x="1004.0" y="430.0"/>
      <point x="1126.0" y="345.0" type="qcurve" smooth="yes"/>
      <point x="1219.0" y="265.0"/>
      <point x="1077.0" y="42.0"/>
      <point x="983.0" y="104.0" type="qcurve" smooth="yes"/>
      <point x="884.0" y="168.0"/>
      <point x="86.0" y="634.0"/>
    </contour>
  </outline>
</glyph>
<glyph name="question" format="2">
  <advance width="1512"/>
  <unicode hex="003F"/>
  <outline>
    <contour>
      <point x="339.0" y="192.0" type="qcurve" smooth="yes"/>
      <point x="339.0" y="281.0"/>
      <point x="470.0" y="407.0"/>
      <point x="575.0" y="407.0" type="qcurve" smooth="yes"/>
      <point x="679.0" y="407.0"/>
      <point x="810.0" y="281.0"/>
      <point x="810.0" y="192.0" type="qcurve" smooth="yes"/>
      <point x="810.0" y="104.0"/>
      <point x="679.0" y="-22.0"/>
      <point x="575.0" y="-22.0" type="qcurve" smooth="yes"/>
      <point x="470.0" y="-22.0"/>
      <point x="339.0" y="104.0"/>
    </contour>
    <contour>
      <point x="78.0" y="1137.0" type="qcurve" smooth="yes"/>
      <point x="78.0" y="1285.0"/>
      <point x="407.0" y="1524.0"/>
      <point x="722.0" y="1524.0" type="qcurve" smooth="yes"/>
      <point x="1087.0" y="1524.0"/>
      <point x="1462.0" y="1352.0"/>
      <point x="1462.0" y="1183.0" type="qcurve" smooth="yes"/>
      <point x="1462.0" y="1042.0"/>
      <point x="1314.0" y="839.0"/>
      <point x="1101.0" y="759.0" type="qcurve" smooth="yes"/>
      <point x="951.0" y="701.0"/>
      <point x="664.0" y="614.0"/>
      <point x="664.0" y="532.0" type="qcurve" smooth="yes"/>
      <point x="664.0" y="495.0" type="line"/>
      <point x="468.0" y="495.0" type="line"/>
      <point x="462.0" y="579.0" type="line" smooth="yes"/>
      <point x="444.0" y="728.0"/>
      <point x="588.0" y="922.0"/>
      <point x="743.0" y="985.0" type="qcurve" smooth="yes"/>
      <point x="855.0" y="1026.0"/>
      <point x="990.0" y="1129.0"/>
      <point x="990.0" y="1200.0" type="qcurve" smooth="yes"/>
      <point x="990.0" y="1250.0"/>
      <point x="838.0" y="1308.0"/>
      <point x="686.0" y="1308.0" type="qcurve" smooth="yes"/>
      <point x="493.0" y="1308.0"/>
      <point x="317.0" y="1250.0"/>
      <point x="317.0" y="1214.0" type="qcurve" smooth="yes"/>
      <point x="317.0" y="1172.0"/>
      <point x="457.0" y="1103.0"/>
      <point x="456.0" y="1022.0" type="qcurve" smooth="yes"/>
      <point x="454.0" y="965.0"/>
      <point x="384.0" y="885.0"/>
      <point x="302.0" y="885.0" type="qcurve" smooth="yes"/>
      <point x="192.0" y="885.0"/>
      <point x="78.0" y="1029.0"/>
    </contour>
  </outline>
</glyph>
<glyph name="B" format="2">
  <advance width="2472"/>
  <unicode hex="0042"/>
  <outline>
    <contour>
      <point x="90.0" y="0.0" type="line"/>
      <point x="90.0" y="180.0" type="line"/>
      <point x="308.0" y="214.0" type="line"/>
      <point x="310.0" y="724.0" type="line"/>
      <point x="308.0" y="1272.0" type="line"/>
      <point x="90.0" y="1306.0" type="line"/>
      <point x="90.0" y="1500.0" type="line"/>
      <point x="1521.0" y="1500.0" type="line" smooth="yes"/>
      <point x="1854.0" y="1500.0"/>
      <point x="2155.0" y="1312.0"/>
      <point x="2155.0" y="1169.0" type="qcurve" smooth="yes"/>
      <point x="2155.0" y="1034.0"/>
      <point x="1977.0" y="854.0"/>
      <point x="1807.0" y="831.0" type="qcurve"/>
      <point x="1807.0" y="824.0" type="line"/>
      <point x="2007.0" y="796.0"/>
      <point x="2258.0" y="604.0"/>
      <point x="2258.0" y="433.0" type="qcurve" smooth="yes"/>
      <point x="2258.0" y="246.0"/>
      <point x="1928.0" y="1.0"/>
      <point x="1559.0" y="0.0" type="qcurve" smooth="yes"/>
    </contour>
    <contour>
      <point x="847.0" y="220.0" type="line"/>
      <point x="874.0" y="200.0" type="line"/>
      <point x="1307.0" y="200.0" type="line" smooth="yes"/>
      <point x="1513.0" y="200.0"/>
      <point x="1702.0" y="310.0"/>
      <point x="1702.0" y="439.0" type="qcurve" smooth="yes"/>
      <point x="1702.0" y="576.0"/>
      <point x="1524.0" y="693.0"/>
      <point x="1368.0" y="693.0" type="qcurve" smooth="yes"/>
      <point x="848.0" y="693.0" type="line"/>
      <point x="843.0" y="683.0" type="line"/>
    </contour>
    <contour>
      <point x="845.0" y="897.0" type="line"/>
      <point x="846.0" y="879.0" type="line"/>
      <point x="1293.0" y="879.0" type="line" smooth="yes"/>
      <point x="1450.0" y="879.0"/>
      <point x="1591.0" y="992.0"/>
      <point x="1591.0" y="1117.0" type="qcurve" smooth="yes"/>
      <point x="1591.0" y="1225.0"/>
      <point x="1441.0" y="1300.0"/>
      <point x="1304.0" y="1300.0" type="qcurve" smooth="yes"/>
      <point x="865.0" y="1300.0" type="line"/>
      <point x="849.0" y="1286.0" type="line"/>
    </contour>
  </outline>
</glyph>
<glyph name="E" format="2">
  <advance width="1996"/>
  <unicode hex="0045"/>
  <outline>
    <contour>
      <point x="90.0" y="0.0" type="line"/>
      <point x="90.0" y="180.0" type="line"/>
      <point x="308.0" y="213.0" type="line"/>
      <point x="310.0" y="725.0" type="line"/>
      <point x="308.0" y="1272.0" type="line"/>
      <point x="90.0" y="1305.0" type="line"/>
      <point x="90.0" y="1500.0" type="line"/>
      <point x="1851.0" y="1500.0" type="line"/>
      <point x="1851.0" y="1118.0" type="line"/>
      <point x="1636.0" y="1118.0" type="line"/>
      <point x="1589.0" y="1292.0" type="line"/>
      <point x="952.0" y="1292.0" type="line"/>
      <point x="858.0" y="1268.0" type="line"/>
      <point x="855.0" y="783.0" type="line"/>
      <point x="858.0" y="240.0" type="line"/>
      <point x="947.0" y="215.0" type="line"/>
      <point x="1662.0" y="215.0" type="line"/>
      <point x="1749.0" y="442.0" type="line"/>
      <point x="1963.0" y="442.0" type="line"/>
      <point x="1922.0" y="0.0" type="line"/>
    </contour>
    <contour>
      <point x="592.0" y="684.0" type="line"/>
      <point x="592.0" y="883.0" type="line"/>
      <point x="1496.0" y="888.0" type="line"/>
      <point x="1534.0" y="1026.0" type="line"/>
      <point x="1710.0" y="1026.0" type="line"/>
      <point x="1710.0" y="539.0" type="line"/>
      <point x="1534.0" y="539.0" type="line"/>
      <point x="1496.0" y="680.0" type="line"/>
    </contour>
  </outline>
</glyph>
<glyph name="F" format="2">
  <advance width="1944"/>
  <unicode hex="0046"/>
  <outline>
    <contour>
      <point x="90.0" y="0.0" type="line"/>
      <point x="90.0" y="180.0" type="line"/>
      <point x="308.0" y="213.0" type="line"/>
      <point x="310.0" y="754.0" type="line"/>
      <point x="308.0" y="1272.0" type="line"/>
      <point x="90.0" y="1305.0" type="line"/>
      <point x="90.0" y="1500.0" type="line"/>
      <point x="1928.0" y="1500.0" type="line"/>
      <point x="1928.0" y="1118.0" type="line"/>
      <point x="1714.0" y="1118.0" type="line"/>
      <point x="1665.0" y="1292.0" type="line"/>
      <point x="921.0" y="1292.0" type="line"/>
      <point x="858.0" y="1268.0" type="line"/>
      <point x="861.0" y="760.0" type="line"/>
      <point x="863.0" y="218.0" type="line"/>
      <point x="1045.0" y="181.0" type="line"/>
      <point x="1045.0" y="0.0" type="line"/>
    </contour>
    <contour>
      <point x="585.0" y="668.0" type="line"/>
      <point x="585.0" y="864.0" type="line"/>
      <point x="1628.0" y="872.0" type="line"/>
      <point x="1665.0" y="995.0" type="line"/>
      <point x="1835.0" y="995.0" type="line"/>
      <point x="1835.0" y="540.0" type="line"/>
      <point x="1665.0" y="540.0" type="line"/>
      <point x="1628.0" y="660.0" type="line"/>
    </contour>
  </outline>
</glyph>
<glyph name="H" format="2">
  <advance width="2596"/>
  <unicode hex="0048"/>
  <outline>
    <contour>
      <point x="90.0" y="0.0" type="line"/>
      <point x="90.0" y="180.0" type="line"/>
      <point x="308.0" y="215.0" type="line"/>
      <point x="310.0" y="754.0" type="line"/>
      <point x="308.0" y="1272.0" type="line"/>
      <point x="90.0" y="1306.0" type="line"/>
      <point x="90.0" y="1500.0" type="line"/>
      <point x="1070.0" y="1500.0" type="line"/>
      <point x="1070.0" y="1306.0" type="line"/>
      <point x="857.0" y="1272.0" type="line"/>
      <point x="855.0" y="754.0" type="line"/>
      <point x="857.0" y="215.0" type="line"/>
      <point x="1070.0" y="180.0" type="line"/>
      <point x="1070.0" y="0.0" type="line"/>
    </contour>
    <contour>
      <point x="583.0" y="670.0" type="line"/>
      <point x="583.0" y="882.0" type="line"/>
      <point x="1303.0" y="874.0" type="line"/>
      <point x="2025.0" y="882.0" type="line"/>
      <point x="2025.0" y="670.0" type="line"/>
      <point x="1303.0" y="670.0" type="line"/>
    </contour>
    <contour>
      <point x="1526.0" y="0.0" type="line"/>
      <point x="1526.0" y="180.0" type="line"/>
      <point x="1739.0" y="215.0" type="line"/>
      <point x="1741.0" y="754.0" type="line"/>
      <point x="1739.0" y="1272.0" type="line"/>
      <point x="1526.0" y="1306.0" type="line"/>
      <point x="1526.0" y="1500.0" type="line"/>
      <point x="2506.0" y="1500.0" type="line"/>
      <point x="2506.0" y="1306.0" type="line"/>
      <point x="2288.0" y="1272.0" type="line"/>
      <point x="2286.0" y="754.0" type="line"/>
      <point x="2288.0" y="215.0" type="line"/>
      <point x="2506.0" y="180.0" type="line"/>
      <point x="2506.0" y="0.0" type="line"/>
    </contour>
  </outline>
</glyph>
<glyph name="I" format="2">
  <advance width="1185"/>
  <unicode hex="0049"/>
  <outline>
    <contour>
      <point x="100.0" y="0.0" type="line"/>
      <point x="100.0" y="180.0" type="line"/>
      <point x="318.0" y="215.0" type="line"/>
      <point x="320.0" y="754.0" type="line"/>
      <point x="318.0" y="1272.0" type="line"/>
      <point x="100.0" y="1306.0" type="line"/>
      <point x="100.0" y="1500.0" type="line"/>
      <point x="1085.0" y="1500.0" type="line"/>
      <point x="1085.0" y="1306.0" type="line"/>
      <point x="867.0" y="1272.0" type="line"/>
      <point x="865.0" y="754.0" type="line"/>
      <point x="867.0" y="214.0" type="line"/>
      <point x="1085.0" y="180.0" type="line"/>
      <point x="1085.0" y="0.0" type="line"/>
    </contour>
  </outline>
</glyph>
<glyph name="T" format="2">
  <advance width="2067"/>
  <unicode hex="0054"/>
  <outline>
    <contour>
      <point x="73.0" y="1042.0" type="line"/>
      <point x="73.0" y="1500.0" type="line"/>
      <point x="1994.0" y="1500.0" type="line"/>
      <point x="1994.0" y="1042.0" type="line"/>
      <point x="1778.0" y="1042.0" type="line"/>
      <point x="1738.0" y="1296.0" type="line"/>
      <point x="1321.0" y="1296.0" type="line"/>
      <point x="1303.0" y="1280.0" type="line"/>
      <point x="1304.0" y="754.0" type="line"/>
      <point x="1305.0" y="215.0" type="line"/>
      <point x="1535.0" y="180.0" type="line"/>
      <point x="1535.0" y="0.0" type="line"/>
      <point x="532.0" y="0.0" type="line"/>
      <point x="532.0" y="180.0" type="line"/>
      <point x="760.0" y="215.0" type="line"/>
      <point x="762.0" y="754.0" type="line"/>
      <point x="763.0" y="1280.0" type="line"/>
      <point x="747.0" y="1296.0" type="line"/>
      <point x="328.0" y="1296.0" type="line"/>
      <point x="288.0" y="1042.0" type="line"/>
    </contour>
  </outline>
</glyph>
<glyph name="grave" format="2">
  <advance width="1024"/>
  <unicode hex="0060"/>
  <outline>
    <contour>
      <point x="174.0" y="1544.0" type="qcurve" smooth="yes"/>
      <point x="174.0" y="1588.0"/>
      <point x="255.0" y="1689.0"/>
      <point x="332.0" y="1689.0" type="qcurve" smooth="yes"/>
      <point x="382.0" y="1689.0"/>
      <point x="474.0" y="1620.0"/>
      <point x="523.0" y="1560.0" type="qcurve" smooth="yes"/>
      <point x="816.0" y="1247.0" type="line"/>
      <point x="718.0" y="1129.0" type="line"/>
      <point x="298.0" y="1380.0" type="line" smooth="yes"/>
      <point x="242.0" y="1414.0"/>
      <point x="174.0" y="1510.0"/>
    </contour>
  </outline>
</glyph>
<glyph name="h" format="2">
  <advance width="2326"/>
  <unicode hex="0068"/>
  <outline>
    <contour>
      <point x="77.0" y="0.0" type="line"/>
      <point x="77.0" y="181.0" type="line"/>
      <point x="281.0" y="216.0" type="line"/>
      <point x="283.0" y="587.0" type="line"/>
      <point x="281.0" y="1279.0" type="line"/>
      <point x="104.0" y="1309.0" type="line"/>
      <point x="104.0" y="1500.0" type="line"/>
      <point x="721.0" y="1534.0" type="line"/>
      <point x="753.0" y="1534.0" type="line"/>
      <point x="812.0" y="1485.0" type="line"/>
      <point x="812.0" y="895.0" type="line"/>
      <point x="926.0" y="978.0"/>
      <point x="1280.0" y="1121.0"/>
      <point x="1495.0" y="1121.0" type="qcurve" smooth="yes"/>
      <point x="1791.0" y="1121.0"/>
      <point x="2070.0" y="916.0"/>
      <point x="2070.0" y="752.0" type="qcurve" smooth="yes"/>
      <point x="2070.0" y="714.0"/>
      <point x="2071.0" y="619.0"/>
      <point x="2071.0" y="586.0" type="qcurve"/>
      <point x="2072.0" y="216.0" type="line"/>
      <point x="2282.0" y="181.0" type="line"/>
      <point x="2282.0" y="0.0" type="line"/>
      <point x="1359.0" y="0.0" type="line"/>
      <point x="1359.0" y="181.0" type="line"/>
      <point x="1533.0" y="216.0" type="line"/>
      <point x="1539.0" y="535.0" type="line"/>
      <point x="1539.0" y="590.0" type="line" smooth="yes"/>
      <point x="1539.0" y="732.0"/>
      <point x="1392.0" y="821.0"/>
      <point x="1242.0" y="821.0" type="qcurve" smooth="yes"/>
      <point x="1101.0" y="821.0"/>
      <point x="876.0" y="692.0"/>
      <point x="814.0" y="648.0" type="qcurve"/>
      <point x="811.0" y="535.0" type="line"/>
      <point x="814.0" y="216.0" type="line"/>
      <point x="1001.0" y="181.0" type="line"/>
      <point x="1001.0" y="0.0" type="line"/>
    </contour>
  </outline>
</glyph>
<glyph name="k" format="2">
  <advance width="1948"/>
  <unicode hex="006B"/>
  <outline>
    <contour>
      <point x="77.0" y="0.0" type="line"/>
      <point x="77.0" y="181.0" type="line"/>
      <point x="281.0" y="216.0" type="line"/>
      <point x="283.0" y="557.0" type="line"/>
      <point x="281.0" y="1279.0" type="line"/>
      <point x="104.0" y="1309.0" type="line"/>
      <point x="104.0" y="1500.0" type="line"/>
      <point x="721.0" y="1534.0" type="line"/>
      <point x="753.0" y="1534.0" type="line"/>
      <point x="812.0" y="1485.0" type="line"/>
      <point x="817.0" y="597.0" type="line"/>
      <point x="814.0" y="216.0" type="line"/>
      <point x="1001.0" y="181.0" type="line"/>
      <point x="1001.0" y="0.0" type="line"/>
    </contour>
    <contour>
      <point x="770.0" y="349.0" type="line"/>
      <point x="732.0" y="552.0" type="line"/>
      <point x="1283.0" y="873.0" type="line"/>
      <point x="1168.0" y="903.0" type="line"/>
      <point x="1168.0" y="1100.0" type="line"/>
      <point x="1908.0" y="1100.0" type="line"/>
      <point x="1908.0" y="903.0" type="line"/>
      <point x="1644.0" y="868.0" type="line"/>
    </contour>
    <contour>
      <point x="924.0" y="549.0" type="line"/>
      <point x="1323.0" y="887.0" type="line"/>
      <point x="1808.0" y="223.0" type="line"/>
      <point x="2022.0" y="181.0" type="line"/>
      <point x="2022.0" y="0.0" type="line"/>
      <point x="1300.0" y="0.0" type="line"/>
      <point x="1262.0" y="55.0" type="line"/>
      <point x="1238.0" y="145.0" type="line"/>
    </contour>
  </outline>
</glyph>
<glyph name="m" format="2">
  <advance width="3408"/>
  <unicode hex="006D"/>
  <outline>
    <contour>
      <point x="77.0" y="0.0" type="line"/>
      <point x="77.0" y="181.0" type="line"/>
      <point x="275.0" y="216.0" type="line"/>
      <point x="277.0" y="577.0" type="line"/>
      <point x="275.0" y="850.0" type="line"/>
      <point x="67.0" y="880.0" type="line"/>
      <point x="67.0" y="1072.0" type="line"/>
      <point x="729.0" y="1112.0" type="line"/>
      <point x="769.0" y="1085.0" type="line"/>
      <point x="792.0" y="899.0" type="line"/>
      <point x="919.0" y="1007.0"/>
      <point x="1230.0" y="1122.0"/>
      <point x="1438.0" y="1122.0" type="qcurve" smooth="yes"/>
      <point x="1661.0" y="1122.0"/>
      <point x="1913.0" y="997.0"/>
      <point x="1954.0" y="889.0" type="qcurve"/>
      <point x="2089.0" y="1009.0"/>
      <point x="2401.0" y="1121.0"/>
      <point x="2602.0" y="1121.0" type="qcurve" smooth="yes"/>
      <point x="2889.0" y="1121.0"/>
      <point x="3148.0" y="917.0"/>
      <point x="3148.0" y="752.0" type="qcurve" smooth="yes"/>
      <point x="3147.0" y="702.0"/>
      <point x="3148.0" y="562.0"/>
      <point x="3149.0" y="586.0" type="qcurve" smooth="yes"/>
      <point x="3150.0" y="215.0" type="line"/>
      <point x="3400.0" y="181.0" type="line"/>
      <point x="3400.0" y="0.0" type="line"/>
      <point x="2448.0" y="0.0" type="line"/>
      <point x="2448.0" y="181.0" type="line"/>
      <point x="2612.0" y="216.0" type="line"/>
      <point x="2617.0" y="535.0" type="line"/>
      <point x="2617.0" y="593.0" type="line" smooth="yes"/>
      <point x="2617.0" y="723.0"/>
      <point x="2498.0" y="824.0"/>
      <point x="2344.0" y="824.0" type="qcurve" smooth="yes"/>
      <point x="2237.0" y="824.0"/>
      <point x="2040.0" y="718.0"/>
      <point x="1978.0" y="659.0" type="qcurve"/>
      <point x="1984.0" y="589.0"/>
      <point x="1976.0" y="544.0"/>
      <point x="1977.0" y="549.0" type="qcurve" smooth="yes"/>
      <point x="1975.0" y="216.0" type="line"/>
      <point x="2178.0" y="181.0" type="line"/>
      <point x="2178.0" y="0.0" type="line"/>
      <point x="1279.0" y="0.0" type="line"/>
      <point x="1279.0" y="181.0" type="line"/>
      <point x="1443.0" y="216.0" type="line"/>
      <point x="1447.0" y="577.0" type="line"/>
      <point x="1447.0" y="626.0" type="line" smooth="yes"/>
      <point x="1447.0" y="739.0"/>
      <point x="1341.0" y="823.0"/>
      <point x="1185.0" y="824.0" type="qcurve" smooth="yes"/>
      <point x="1073.0" y="825.0"/>
      <point x="869.0" y="717.0"/>
      <point x="806.0" y="660.0" type="qcurve"/>
      <point x="806.0" y="577.0" type="line"/>
      <point x="808.0" y="216.0" type="line"/>
      <point x="972.0" y="181.0" type="line"/>
      <point x="972.0" y="0.0" type="line"/>
    </contour>
  </outline>
</glyph>
<glyph name="n" format="2">
  <advance width="2283"/>
  <unicode hex="006E"/>
  <outline>
    <contour>
      <point x="77.0" y="0.0" type="line"/>
      <point x="77.0" y="181.0" type="line"/>
      <point x="275.0" y="216.0" type="line"/>
      <point x="277.0" y="587.0" type="line"/>
      <point x="275.0" y="850.0" type="line"/>
      <point x="67.0" y="880.0" type="line"/>
      <point x="67.0" y="1072.0" type="line"/>
      <point x="728.0" y="1112.0" type="line"/>
      <point x="768.0" y="1085.0" type="line"/>
      <point x="793.0" y="881.0" type="line"/>
      <point x="904.0" y="970.0"/>
      <point x="1265.0" y="1122.0"/>
      <point x="1488.0" y="1122.0" type="qcurve" smooth="yes"/>
      <point x="1785.0" y="1122.0"/>
      <point x="2069.0" y="917.0"/>
      <point x="2069.0" y="753.0" type="qcurve" smooth="yes"/>
      <point x="2069.0" y="713.0"/>
      <point x="2064.0" y="601.0"/>
      <point x="2064.0" y="586.0" type="qcurve" smooth="yes"/>
      <point x="2065.0" y="215.0" type="line"/>
      <point x="2275.0" y="181.0" type="line"/>
      <point x="2275.0" y="0.0" type="line"/>
      <point x="1352.0" y="0.0" type="line"/>
      <point x="1352.0" y="181.0" type="line"/>
      <point x="1526.0" y="216.0" type="line"/>
      <point x="1532.0" y="535.0" type="line"/>
      <point x="1532.0" y="591.0" type="line" smooth="yes"/>
      <point x="1532.0" y="716.0"/>
      <point x="1391.0" y="823.0"/>
      <point x="1235.0" y="823.0" type="qcurve" smooth="yes"/>
      <point x="1105.0" y="823.0"/>
      <point x="876.0" y="702.0"/>
      <point x="806.0" y="649.0" type="qcurve"/>
      <point x="804.0" y="535.0" type="line"/>
      <point x="807.0" y="216.0" type="line"/>
      <point x="994.0" y="181.0" type="line"/>
      <point x="994.0" y="0.0" type="line"/>
    </contour>
  </outline>
</glyph>
<glyph name="p" format="2">
  <advance width="2207"/>
  <unicode hex="0070"/>
  <outline>
    <contour>
      <point x="67.0" y="-480.0" type="line"/>
      <point x="67.0" y="-304.0" type="line"/>
      <point x="270.0" y="-269.0" type="line"/>
      <point x="272.0" y="452.0" type="line"/>
      <point x="270.0" y="850.0" type="line"/>
      <point x="61.0" y="880.0" type="line"/>
      <point x="61.0" y="1070.0" type="line"/>
      <point x="709.0" y="1104.0" type="line"/>
      <point x="744.0" y="1077.0" type="line"/>
      <point x="790.0" y="945.0" type="line"/>
      <point x="871.0" y="1023.0"/>
      <point x="1162.0" y="1122.0"/>
      <point x="1381.0" y="1122.0" type="qcurve" smooth="yes"/>
      <point x="1700.0" y="1122.0"/>
      <point x="2129.0" y="816.0"/>
      <point x="2129.0" y="581.0" type="qcurve" smooth="yes"/>
      <point x="2129.0" y="329.0"/>
      <point x="1680.0" y="-26.0"/>
      <point x="1290.0" y="-26.0" type="qcurve" smooth="yes"/>
      <point x="1110.0" y="-26.0"/>
      <point x="867.0" y="49.0"/>
      <point x="794.0" y="91.0" type="qcurve"/>
      <point x="796.0" y="-269.0" type="line"/>
      <point x="1048.0" y="-304.0" type="line"/>
      <point x="1048.0" y="-480.0" type="line"/>
    </contour>
    <contour>
      <point x="793.0" y="349.0" type="line"/>
      <point x="839.0" y="298.0"/>
      <point x="1040.0" y="216.0"/>
      <point x="1173.0" y="216.0" type="qcurve" smooth="yes"/>
      <point x="1359.0" y="216.0"/>
      <point x="1570.0" y="391.0"/>
      <point x="1570.0" y="540.0" type="qcurve" smooth="yes"/>
      <point x="1570.0" y="686.0"/>
      <point x="1373.0" y="840.0"/>
      <point x="1182.0" y="840.0" type="qcurve" smooth="yes"/>
      <point x="1048.0" y="840.0"/>
      <point x="854.0" y="753.0"/>
      <point x="795.0" y="695.0" type="qcurve"/>
      <point x="790.0" y="478.0" type="line"/>
    </contour>
  </outline>
</glyph>
<glyph name="v" format="2">
  <advance width="2044"/>
  <unicode hex="0076"/>
  <outline>
    <contour>
      <point x="20.0" y="909.0" type="line"/>
      <point x="20.0" y="1100.0" type="line"/>
      <point x="997.0" y="1100.0" type="line"/>
      <point x="997.0" y="919.0" type="line"/>
      <point x="816.0" y="883.0" type="line"/>
      <point x="987.0" y="621.0" type="line"/>
      <point x="1203.0" y="351.0" type="line"/>
      <point x="1399.0" y="637.0" type="line"/>
      <point x="1539.0" y="884.0" type="line"/>
      <point x="1359.0" y="919.0" type="line"/>
      <point x="1359.0" y="1100.0" type="line"/>
      <point x="1974.0" y="1100.0" type="line"/>
      <point x="1974.0" y="909.0" type="line"/>
      <point x="1781.0" y="874.0" type="line"/>
      <point x="1594.0" y="590.0" type="line"/>
      <point x="1295.0" y="0.0" type="line"/>
      <point x="761.0" y="0.0" type="line"/>
      <point x="458.0" y="508.0" type="line"/>
      <point x="216.0" y="874.0" type="line"/>
    </contour>
  </outline>
</glyph>
<glyph name="sterling" format="2">
  <advance width="1512"/>
  <unicode hex="00A3"/>
  <outline>
    <contour>
      <point x="908.0" y="560.0" type="qcurve" smooth="yes"/>
      <point x="908.0" y="489.0"/>
      <point x="802.0" y="375.0"/>
      <point x="692.0" y="285.0" type="qcurve"/>
      <point x="702.0" y="279.0" type="line"/>
      <point x="1239.0" y="258.0" type="line"/>
      <point x="1373.0" y="422.0" type="line"/>
      <point x="1539.0" y="422.0" type="line"/>
      <point x="1410.0" y="0.0" type="line"/>
      <point x="91.0" y="0.0" type="line"/>
      <point x="23.0" y="160.0" type="line"/>
      <point x="137.0" y="299.0" type="line"/>
      <point x="378.0" y="288.0"/>
      <point x="559.0" y="389.0"/>
      <point x="559.0" y="590.0" type="qcurve" smooth="yes"/>
      <point x="559.0" y="630.0"/>
      <point x="419.0" y="735.0"/>
      <point x="342.0" y="790.0" type="qcurve" smooth="yes"/>
      <point x="240.0" y="866.0"/>
      <point x="186.0" y="992.0"/>
      <point x="186.0" y="1119.0" type="qcurve" smooth="yes"/>
      <point x="186.0" y="1329.0"/>
      <point x="484.0" y="1536.0"/>
      <point x="820.0" y="1536.0" type="qcurve" smooth="yes"/>
      <point x="987.0" y="1536.0"/>
      <point x="1294.0" y="1449.0"/>
      <point x="1402.0" y="1373.0" type="qcurve"/>
      <point x="1281.0" y="1146.0" type="line"/>
      <point x="1208.0" y="1197.0"/>
      <point x="998.0" y="1246.0"/>
      <point x="895.0" y="1246.0" type="qcurve" smooth="yes"/>
      <point x="760.0" y="1246.0"/>
      <point x="666.0" y="1172.0"/>
      <point x="666.0" y="1101.0" type="qcurve" smooth="yes"/>
      <point x="666.0" y="1048.0"/>
      <point x="691.0" y="961.0"/>
      <point x="789.0" y="876.0" type="qcurve" smooth="yes"/>
      <point x="898.0" y="779.0"/>
      <point x="908.0" y="653.0"/>
    </contour>
    <contour>
      <point x="235.0" y="581.0" type="line"/>
      <point x="184.0" y="797.0" type="line"/>
      <point x="1308.0" y="797.0" type="line"/>
      <point x="1259.0" y="581.0" type="line"/>
    </contour>
  </outline>
</glyph>
<glyph name="currency" format="2">
  <advance width="1630"/>
  <unicode hex="00A4"/>
  <outline>
    <contour>
      <point x="274.0" y="752.0" type="qcurve" smooth="yes"/>
      <point x="274.0" y="974.0"/>
      <point x="566.0" y="1286.0"/>
      <point x="802.0" y="1286.0" type="qcurve" smooth="yes"/>
      <point x="1039.0" y="1286.0"/>
      <point x="1335.0" y="995.0"/>
      <point x="1335.0" y="758.0" type="qcurve" smooth="yes"/>
      <point x="1335.0" y="538.0"/>
      <point x="1045.0" y="217.0"/>
      <point x="807.0" y="217.0" type="qcurve" smooth="yes"/>
      <point x="571.0" y="217.0"/>
      <point x="274.0" y="514.0"/>
    </contour>
    <contour>
      <point x="545.0" y="765.0" type="qcurve" smooth="yes"/>
      <point x="546.0" y="643.0"/>
      <point x="686.0" y="478.0"/>
      <point x="802.0" y="478.0" type="qcurve" smooth="yes"/>
      <point x="927.0" y="478.0"/>
      <point x="1059.0" y="628.0"/>
      <point x="1059.0" y="753.0" type="qcurve" smooth="yes"/>
      <point x="1059.0" y="869.0"/>
      <point x="919.0" y="1019.0"/>
      <point x="803.0" y="1019.0" type="qcurve" smooth="yes"/>
      <point x="677.0" y="1019.0"/>
      <point x="544.0" y="882.0"/>
    </contour>
    <contour>
      <point x="460.0" y="968.0" type="line"/>
      <point x="148.0" y="1267.0" type="line"/>
      <point x="319.0" y="1437.0" type="line"/>
      <point x="615.0" y="1119.0" type="line"/>
    </contour>
    <contour>
      <point x="1170.0" y="969.0" type="line"/>
      <point x="1017.0" y="1118.0" type="line"/>
      <point x="1313.0" y="1436.0" type="line"/>
      <point x="1481.0" y="1268.0" type="line"/>
    </contour>
    <contour>
      <point x="461.0" y="514.0" type="line"/>
      <point x="624.0" y="364.0" type="line"/>
      <point x="327.0" y="48.0" type="line"/>
      <point x="150.0" y="215.0" type="line"/>
    </contour>
    <contour>
      <point x="1171.0" y="515.0" type="line"/>
      <point x="1483.0" y="216.0" type="line"/>
      <point x="1311.0" y="47.0" type="line"/>
      <point x="1016.0" y="363.0" type="line"/>
    </contour>
  </outline>
</glyph>
<glyph name="yen" format="2">
  <advance width="2085"/>
  <unicode hex="00A5"/>
  <outline>
    <contour>
      <point x="360.0" y="599.0" type="line"/>
      <point x="326.0" y="810.0" type="line"/>
      <point x="1795.0" y="810.0" type="line"/>
      <point x="1755.0" y="599.0" type="line"/>
    </contour>
    <contour>
      <point x="819.0" y="541.0" type="line"/>
      <point x="470.0" y="996.0" type="line"/>
      <point x="211.0" y="1277.0" type="line"/>
      <point x="10.0" y="1311.0" type="line"/>
      <point x="10.0" y="1500.0" type="line"/>
      <point x="1036.0" y="1500.0" type="line"/>
      <point x="1036.0" y="1311.0" type="line"/>
      <point x="823.0" y="1283.0" type="line"/>
      <point x="1005.0" y="1080.0" type="line"/>
      <point x="1240.0" y="765.0" type="line"/>
      <point x="1487.0" y="1051.0" type="line"/>
      <point x="1663.0" y="1277.0" type="line"/>
      <point x="1482.0" y="1311.0" type="line"/>
      <point x="1482.0" y="1500.0" type="line"/>
      <point x="2116.0" y="1500.0" type="line"/>
      <point x="2116.0" y="1311.0" type="line"/>
      <point x="1910.0" y="1277.0" type="line"/>
      <point x="1680.0" y="1020.0" type="line"/>
      <point x="1329.0" y="539.0" type="line"/>
      <point x="1330.0" y="203.0" type="line"/>
      <point x="1520.0" y="169.0" type="line"/>
      <point x="1520.0" y="0.0" type="line"/>
      <point x="624.0" y="0.0" type="line"/>
      <point x="624.0" y="169.0" type="line"/>
      <point x="817.0" y="203.0" type="line"/>
    </contour>
    <contour>
      <point x="410.0" y="278.0" type="line"/>
      <point x="376.0" y="489.0" type="line"/>
      <point x="1742.0" y="489.0" type="line"/>
      <point x="1702.0" y="278.0" type="line"/>
    </contour>
  </outline>
</glyph>
<glyph name="brokenbar" format="2">
  <advance width="745"/>
  <unicode hex="00A6"/>
  <outline>
    <contour>
      <point x="179.0" y="725.0" type="line"/>
      <point x="162.0" y="941.0" type="line"/>
      <point x="171.0" y="1249.0" type="line"/>
      <point x="169.0" y="1534.0" type="line"/>
      <point x="577.0" y="1557.0" type="line"/>
      <point x="574.0" y="1249.0" type="line"/>
      <point x="580.0" y="941.0" type="line"/>
      <point x="580.0" y="749.0" type="line"/>
    </contour>
    <contour>
      <point x="172.0" y="-485.0" type="line"/>
      <point x="177.0" y="-57.0" type="line"/>
      <point x="164.0" y="251.0" type="line"/>
      <point x="163.0" y="479.0" type="line"/>
      <point x="564.0" y="495.0" type="line"/>
      <point x="581.0" y="251.0" type="line"/>
      <point x="574.0" y="-57.0" type="line"/>
      <point x="575.0" y="-501.0" type="line"/>
    </contour>
  </outline>
</glyph>
<glyph name="twosuperior" format="2">
  <advance width="1024"/>
  <unicode hex="00B2"/>
  <outline>
    <contour>
      <point x="75.0" y="620.0" type="line"/>
      <point x="77.0" y="716.0" type="line"/>
      <point x="79.0" y="836.0"/>
      <point x="289.0" y="1048.0"/>
      <point x="411.0" y="1088.0" type="qcurve" smooth="yes"/>
      <point x="531.0" y="1128.0"/>
      <point x="614.0" y="1206.0"/>
      <point x="616.0" y="1244.0" type="qcurve" smooth="yes"/>
      <point x="619.0" y="1276.0"/>
      <point x="555.0" y="1334.0"/>
      <point x="451.0" y="1334.0" type="qcurve" smooth="yes"/>
      <point x="373.0" y="1334.0"/>
      <point x="215.0" y="1253.0"/>
      <point x="162.0" y="1214.0" type="qcurve"/>
      <point x="97.0" y="1345.0" type="line"/>
      <point x="158.0" y="1412.0"/>
      <point x="415.0" y="1520.0"/>
      <point x="555.0" y="1520.0" type="qcurve" smooth="yes"/>
      <point x="788.0" y="1520.0"/>
      <point x="933.0" y="1384.0"/>
      <point x="936.0" y="1282.0" type="qcurve" smooth="yes"/>
      <point x="939.0" y="1176.0"/>
      <point x="827.0" y="1037.0"/>
      <point x="572.0" y="957.0" type="qcurve" smooth="yes"/>
      <point x="409.0" y="925.0"/>
      <point x="331.0" y="886.0"/>
      <point x="320.0" y="824.0" type="qcurve"/>
      <point x="328.0" y="844.0" type="line"/>
      <point x="962.0" y="843.0" type="line"/>
      <point x="962.0" y="620.0" type="line"/>
    </contour>
  </outline>
</glyph>
<glyph name="cedilla" format="2">
  <advance width="1024"/>
  <unicode hex="00B8"/>
  <outline>
    <contour>
      <point x="563.0" y="16.0" type="line"/>
      <point x="488.0" y="-124.0" type="line"/>
      <point x="526.0" y="-105.0"/>
      <point x="611.0" y="-104.0"/>
      <point x="656.0" y="-104.0" type="qcurve" smooth="yes"/>
      <point x="784.0" y="-104.0"/>
      <point x="958.0" y="-196.0"/>
      <point x="958.0" y="-302.0" type="qcurve" smooth="yes"/>
      <point x="958.0" y="-416.0"/>
      <point x="715.0" y="-560.0"/>
      <point x="487.0" y="-560.0" type="qcurve" smooth="yes"/>
      <point x="378.0" y="-560.0"/>
      <point x="199.0" y="-514.0"/>
      <point x="114.0" y="-475.0" type="qcurve"/>
      <point x="173.0" y="-381.0" type="line"/>
      <point x="228.0" y="-404.0"/>
      <point x="396.0" y="-431.0"/>
      <point x="491.0" y="-431.0" type="qcurve" smooth="yes"/>
      <point x="592.0" y="-431.0"/>
      <point x="686.0" y="-382.0"/>
      <point x="686.0" y="-330.0" type="qcurve" smooth="yes"/>
      <point x="686.0" y="-289.0"/>
      <point x="612.0" y="-238.0"/>
      <point x="541.0" y="-238.0" type="qcurve" smooth="yes"/>
      <point x="506.0" y="-238.0"/>
      <point x="427.0" y="-245.0"/>
      <point x="405.0" y="-253.0" type="qcurve"/>
      <point x="307.0" y="-170.0" type="line"/>
      <point x="410.0" y="20.0" type="line"/>
    </contour>
  </outline>
</glyph>
<glyph name="onesuperior" format="2">
  <advance width="939"/>
  <unicode hex="00B9"/>
  <outline>
    <contour>
      <point x="83.0" y="620.0" type="line"/>
      <point x="83.0" y="774.0" type="line"/>
      <point x="308.0" y="804.0" type="line"/>
      <point x="311.0" y="1104.0" type="line"/>
      <point x="318.0" y="1282.0" type="line"/>
      <point x="101.0" y="1311.0" type="line"/>
      <point x="101.0" y="1475.0" type="line"/>
      <point x="598.0" y="1508.0" type="line"/>
      <point x="630.0" y="1473.0" type="line"/>
      <point x="624.0" y="1104.0" type="line"/>
      <point x="626.0" y="804.0" type="line"/>
      <point x="855.0" y="774.0" type="line"/>
      <point x="855.0" y="620.0" type="line"/>
    </contour>
  </outline>
</glyph>
<glyph name="ordmasculine" format="2">
  <advance width="1629"/>
  <unicode hex="00BA"/>
  <outline>
    <contour>
      <point x="89.0" y="1058.0" type="qcurve" smooth="yes"/>
      <point x="89.0" y="1272.0"/>
      <point x="484.0" y="1530.0"/>
      <point x="812.0" y="1530.0" type="qcurve" smooth="yes"/>
      <point x="1141.0" y="1530.0"/>
      <point x="1540.0" y="1285.0"/>
      <point x="1540.0" y="1064.0" type="qcurve" smooth="yes"/>
      <point x="1540.0" y="856.0"/>
      <point x="1146.0" y="586.0"/>
      <point x="820.0" y="586.0" type="qcurve" smooth="yes"/>
      <point x="491.0" y="586.0"/>
      <point x="89.0" y="836.0"/>
    </contour>
    <contour>
      <point x="509.0" y="1069.0" type="qcurve" smooth="yes"/>
      <point x="512.0" y="898.0"/>
      <point x="667.0" y="763.0"/>
      <point x="811.0" y="763.0" type="qcurve" smooth="yes"/>
      <point x="965.0" y="763.0"/>
      <point x="1115.0" y="884.0"/>
      <point x="1115.0" y="1060.0" type="qcurve" smooth="yes"/>
      <point x="1115.0" y="1224.0"/>
      <point x="958.0" y="1340.0"/>
      <point x="813.0" y="1340.0" type="qcurve" smooth="yes"/>
      <point x="657.0" y="1340.0"/>
      <point x="509.0" y="1237.0"/>
    </contour>
  </outline>
</glyph>
<glyph name="questiondown" format="2">
  <advance width="1512"/>
  <unicode hex="00BF"/>
  <outline>
    <contour>
      <point x="1238.0" y="1146.0" type="qcurve" smooth="yes"/>
      <point x="1238.0" y="1057.0"/>
      <point x="1107.0" y="931.0"/>
      <point x="1002.0" y="931.0" type="qcurve" smooth="yes"/>
      <point x="898.0" y="931.0"/>
      <point x="767.0" y="1057.0"/>
      <point x="767.0" y="1146.0" type="qcurve" smooth="yes"/>
      <point x="767.0" y="1234.0"/>
      <point x="898.0" y="1360.0"/>
      <point x="1002.0" y="1360.0" type="qcurve" smooth="yes"/>
      <point x="1107.0" y="1360.0"/>
      <point x="1238.0" y="1234.0"/>
    </contour>
    <contour>
      <point x="1489.0" y="201.0" type="qcurve" smooth="yes"/>
      <point x="1489.0" y="53.0"/>
      <point x="1160.0" y="-186.0"/>
      <point x="845.0" y="-186.0" type="qcurve" smooth="yes"/>
      <point x="480.0" y="-186.0"/>
      <point x="105.0" y="-14.0"/>
      <point x="105.0" y="155.0" type="qcurve" smooth="yes"/>
      <point x="105.0" y="296.0"/>
      <point x="237.0" y="484.0"/>
      <point x="496.0" y="591.0" type="qcurve" smooth="yes"/>
      <point x="614.0" y="643.0"/>
      <point x="903.0" y="724.0"/>
      <point x="903.0" y="806.0" type="qcurve" smooth="yes"/>
      <point x="903.0" y="843.0" type="line"/>
      <point x="1099.0" y="843.0" type="line"/>
      <point x="1105.0" y="759.0" type="line" smooth="yes"/>
      <point x="1123.0" y="610.0"/>
      <point x="979.0" y="416.0"/>
      <point x="824.0" y="353.0" type="qcurve" smooth="yes"/>
      <point x="712.0" y="312.0"/>
      <point x="577.0" y="209.0"/>
      <point x="577.0" y="138.0" type="qcurve" smooth="yes"/>
      <point x="577.0" y="88.0"/>
      <point x="729.0" y="30.0"/>
      <point x="881.0" y="30.0" type="qcurve" smooth="yes"/>
      <point x="1074.0" y="30.0"/>
      <point x="1250.0" y="88.0"/>
      <point x="1250.0" y="124.0" type="qcurve" smooth="yes"/>
      <point x="1250.0" y="166.0"/>
      <point x="1110.0" y="235.0"/>
      <point x="1111.0" y="316.0" type="qcurve" smooth="yes"/>
      <point x="1113.0" y="373.0"/>
      <point x="1183.0" y="453.0"/>
      <point x="1265.0" y="453.0" type="qcurve" smooth="yes"/>
      <point x="1375.0" y="453.0"/>
      <point x="1489.0" y="309.0"/>
    </contour>
  </outline>
</glyph>
<glyph name="idotless" format="2">
  <advance width="1036"/>
  <unicode hex="0131"/>
  <outline>
    <contour>
      <point x="97.0" y="0.0" type="line"/>
      <point x="97.0" y="181.0" type="line"/>
      <point x="275.0" y="216.0" type="line"/>
      <point x="277.0" y="577.0" type="line"/>
      <point x="275.0" y="850.0" type="line"/>
      <point x="97.0" y="880.0" type="line"/>
      <point x="97.0" y="1071.0" type="line"/>
      <point x="691.0" y="1102.0" type="line"/>
      <point x="769.0" y="1102.0" type="line"/>
      <point x="812.0" y="1053.0" type="line"/>
      <point x="805.0" y="577.0" type="line"/>
      <point x="807.0" y="216.0" type="line"/>
      <point x="975.0" y="181.0" type="line"/>
      <point x="975.0" y="0.0" type="line"/>
    </contour>
  </outline>
</glyph>
<glyph name="kgreenlandic" format="2">
  <advance width="1998"/>
  <unicode hex="0138"/>
  <outline>
    <contour>
      <point x="78.0" y="0.0" type="line"/>
      <point x="78.0" y="181.0" type="line"/>
      <point x="289.0" y="216.0" type="line"/>
      <point x="291.0" y="557.0" type="line"/>
      <point x="289.0" y="863.0" type="line"/>
      <point x="78.0" y="905.0" type="line"/>
      <point x="78.0" y="1100.0" type="line"/>
      <point x="931.0" y="1100.0" type="line"/>
      <point x="931.0" y="899.0" type="line"/>
      <point x="826.0" y="864.0" type="line"/>
      <point x="826.0" y="577.0" type="line"/>
      <point x="823.0" y="216.0" type="line"/>
      <point x="1000.0" y="181.0" type="line"/>
      <point x="1000.0" y="0.0" type="line"/>
    </contour>
    <contour>
      <point x="784.0" y="389.0" type="line"/>
      <point x="738.0" y="581.0" type="line"/>
      <point x="1297.0" y="873.0" type="line"/>
      <point x="1212.0" y="903.0" type="line"/>
      <point x="1212.0" y="1100.0" type="line"/>
      <point x="1932.0" y="1100.0" type="line"/>
      <point x="1932.0" y="903.0" type="line"/>
      <point x="1668.0" y="868.0" type="line"/>
    </contour>
    <contour>
      <point x="955.0" y="559.0" type="line"/>
      <point x="1327.0" y="897.0" type="line"/>
      <point x="1867.0" y="219.0" type="line"/>
      <point x="2041.0" y="181.0" type="line"/>
      <point x="2041.0" y="0.0" type="line"/>
      <point x="1271.0" y="0.0" type="line"/>
      <point x="1257.0" y="175.0" type="line"/>
      <point x="1299.0" y="204.0" type="line"/>
    </contour>
  </outline>
</glyph>
<glyph name="doubleprimemod" format="2">
  <advance width="1517"/>
  <unicode hex="02BA"/>
  <outline>
    <contour>
      <point x="312.0" y="1502.0" type="line"/>
      <point x="707.0" y="1502.0" type="line"/>
      <point x="483.0" y="819.0" type="line"/>
      <point x="235.0" y="834.0" type="line"/>
    </contour>
    <contour>
      <point x="909.0" y="1502.0" type="line"/>
      <point x="1304.0" y="1502.0" type="line"/>
      <point x="1080.0" y="819.0" type="line"/>
      <point x="832.0" y="834.0" type="line"/>
    </contour>
  </outline>
</glyph>
<glyph name="breve" format="2">
  <advance width="1024"/>
  <unicode hex="02D8"/>
  <outline>
    <contour>
      <point x="834.0" y="1565.0" type="qcurve"/>
      <point x="1000.0" y="1521.0" type="line"/>
      <point x="961.0" y="1402.0"/>
      <point x="735.0" y="1181.0"/>
      <point x="519.0" y="1181.0" type="qcurve" smooth="yes"/>
      <point x="293.0" y="1181.0"/>
      <point x="62.0" y="1377.0"/>
      <point x="24.0" y="1518.0" type="qcurve"/>
      <point x="192.0" y="1566.0" type="line"/>
      <point x="245.0" y="1489.0"/>
      <point x="379.0" y="1391.0"/>
      <point x="512.0" y="1395.0" type="qcurve" smooth="yes"/>
      <point x="643.0" y="1391.0"/>
      <point x="781.0" y="1482.0"/>
    </contour>
  </outline>
</glyph>
<glyph name="ogonek" format="2">
  <advance width="1024"/>
  <unicode hex="02DB"/>
  <outline>
    <contour>
      <point x="461.0" y="-258.0" type="qcurve" smooth="yes"/>
      <point x="461.0" y="-316.0"/>
      <point x="561.0" y="-380.0"/>
      <point x="640.0" y="-380.0" type="qcurve" smooth="yes"/>
      <point x="707.0" y="-380.0"/>
      <point x="835.0" y="-331.0"/>
      <point x="914.0" y="-283.0" type="qcurve"/>
      <point x="995.0" y="-398.0" type="line"/>
      <point x="931.0" y="-455.0"/>
      <point x="687.0" y="-539.0"/>
      <point x="556.0" y="-539.0" type="qcurve" smooth="yes"/>
      <point x="414.0" y="-539.0"/>
      <point x="218.0" y="-425.0"/>
      <point x="218.0" y="-323.0" type="qcurve" smooth="yes"/>
      <point x="218.0" y="-213.0"/>
      <point x="402.0" y="-50.0"/>
      <point x="514.0" y="18.0" type="qcurve" smooth="yes"/>
      <point x="548.0" y="38.0" type="line"/>
      <point x="660.0" y="-21.0" type="line"/>
      <point x="639.0" y="-34.0" type="line" smooth="yes"/>
      <point x="550.0" y="-91.0"/>
      <point x="461.0" y="-215.0"/>
    </contour>
  </outline>
</glyph>
<glyph name="hungarumlaut" format="2">
  <advance width="1024"/>
  <unicode hex="02DD"/>
  <outline>
    <contour>
      <point x="732.0" y="1532.0" type="qcurve" smooth="yes"/>
      <point x="732.0" y="1503.0"/>
      <point x="653.0" y="1393.0"/>
      <point x="602.0" y="1371.0" type="qcurve" smooth="yes"/>
      <point x="223.0" y="1197.0" type="line"/>
      <point x="116.0" y="1294.0" type="line"/>
      <point x="377.0" y="1545.0" type="line" smooth="yes"/>
      <point x="424.0" y="1594.0"/>
      <point x="551.0" y="1657.0"/>
      <point x="594.0" y="1657.0" type="qcurve" smooth="yes"/>
      <point x="665.0" y="1657.0"/>
      <point x="732.0" y="1570.0"/>
    </contour>
    <contour>
      <point x="1222.0" y="1532.0" type="qcurve" smooth="yes"/>
      <point x="1222.0" y="1503.0"/>
      <point x="1144.0" y="1392.0"/>
      <point x="1092.0" y="1371.0" type="qcurve" smooth="yes"/>
      <point x="707.0" y="1197.0" type="line"/>
      <point x="607.0" y="1294.0" type="line"/>
      <point x="859.0" y="1545.0" type="line" smooth="yes"/>
      <point x="904.0" y="1594.0"/>
      <point x="1041.0" y="1657.0"/>
      <point x="1085.0" y="1657.0" type="qcurve" smooth="yes"/>
      <point x="1155.0" y="1657.0"/>
      <point x="1222.0" y="1570.0"/>
    </contour>
  </outline>
</glyph>
<glyph name="breveinvertedcomb" format="2">
  <advance width="1024"/>
  <unicode hex="030F"/>
  <outline>
    <contour>
      <point x="186.0" y="1110.0" type="qcurve"/>
      <point x="20.0" y="1154.0" type="line"/>
      <point x="55.0" y="1273.0"/>
      <point x="281.0" y="1494.0"/>
      <point x="505.0" y="1494.0" type="qcurve"/>
      <point x="731.0" y="1494.0"/>
      <point x="948.0" y="1338.0"/>
      <point x="1004.0" y="1163.0" type="qcurve"/>
      <point x="828.0" y="1107.0" type="line"/>
      <point x="765.0" y="1190.0"/>
      <point x="637.0" y="1280.0"/>
      <point x="508.0" y="1280.0" type="qcurve"/>
      <point x="371.0" y="1280.0"/>
      <point x="235.0" y="1193.0"/>
    </contour>
  </outline>
</glyph>
<glyph name="commaaccentcomb" format="2">
  <advance width="1024"/>
  <unicode hex="0326"/>
  <outline>
    <contour>
      <point x="371.0" y="-556.0" type="line"/>
      <point x="429.0" y="-505.0"/>
      <point x="444.0" y="-466.0"/>
      <point x="471.0" y="-411.0" type="qcurve"/>
      <point x="394.0" y="-398.0"/>
      <point x="342.0" y="-333.0"/>
      <point x="342.0" y="-275.0" type="qcurve" smooth="yes"/>
      <point x="342.0" y="-223.0"/>
      <point x="418.0" y="-138.0"/>
      <point x="491.0" y="-138.0" type="qcurve" smooth="yes"/>
      <point x="563.0" y="-138.0"/>
      <point x="669.0" y="-222.0"/>
      <point x="669.0" y="-314.0" type="qcurve" smooth="yes"/>
      <point x="669.0" y="-404.0"/>
      <point x="522.0" y="-584.0"/>
      <point x="437.0" y="-627.0" type="qcurve"/>
    </contour>
  </outline>
</glyph>
<glyph name="horizontalbar" format="2">
  <advance width="1415"/>
  <unicode hex="2015"/>
  <outline>
    <contour>
      <point x="770.0" y="666.0" type="line"/>
      <point x="173.0" y="666.0" type="line"/>
      <point x="179.0" y="868.0" type="line"/>
      <point x="788.0" y="868.0" type="line"/>
      <point x="1322.0" y="868.0" type="line"/>
      <point x="1319.0" y="666.0" type="line"/>
    </contour>
  </outline>
</glyph>
<glyph name="daggerdbl" format="2">
  <advance width="1196"/>
  <unicode hex="2021"/>
  <outline>
    <contour>
      <point x="550.0" y="-540.0" type="line"/>
      <point x="417.0" y="-58.0" type="line"/>
      <point x="503.0" y="550.0" type="line"/>
      <point x="501.0" y="930.0" type="line"/>
      <point x="407.0" y="1438.0" type="line"/>
      <point x="477.0" y="1506.0" type="line"/>
      <point x="697.0" y="1506.0" type="line"/>
      <point x="763.0" y="1438.0" type="line"/>
      <point x="677.0" y="930.0" type="line"/>
      <point x="679.0" y="550.0" type="line"/>
      <point x="763.0" y="-58.0" type="line"/>
      <point x="640.0" y="-540.0" type="line"/>
    </contour>
    <contour>
      <point x="48.0" y="802.0" type="line"/>
      <point x="48.0" y="1000.0" type="line"/>
      <point x="591.0" y="992.0" type="line"/>
      <point x="1152.0" y="1000.0" type="line"/>
      <point x="1152.0" y="802.0" type="line"/>
      <point x="591.0" y="826.0" type="line"/>
    </contour>
    <contour>
      <point x="44.0" y="373.0" type="line"/>
      <point x="44.0" y="571.0" type="line"/>
      <point x="587.0" y="583.0" type="line"/>
      <point x="1148.0" y="571.0" type="line"/>
      <point x="1148.0" y="373.0" type="line"/>
      <point x="587.0" y="417.0" type="line"/>
    </contour>
  </outline>
</glyph>
<glyph name="perthousand" format="2">
  <advance width="4083"/>
  <unicode hex="2030"/>
  <outline>
    <contour>
      <point x="111.0" y="1045.0" type="qcurve" smooth="yes"/>
      <point x="111.0" y="1251.0"/>
      <point x="441.0" y="1521.0"/>
      <point x="692.0" y="1521.0" type="qcurve" smooth="yes"/>
      <point x="943.0" y="1521.0"/>
      <point x="1277.0" y="1271.0"/>
      <point x="1277.0" y="1049.0" type="qcurve" smooth="yes"/>
      <point x="1277.0" y="840.0"/>
      <point x="940.0" y="562.0"/>
      <point x="690.0" y="562.0" type="qcurve" smooth="yes"/>
      <point x="438.0" y="562.0"/>
      <point x="111.0" y="818.0"/>
    </contour>
    <contour>
      <point x="478.0" y="1050.0" type="qcurve" smooth="yes"/>
      <point x="478.0" y="864.0"/>
      <point x="588.0" y="695.0"/>
      <point x="690.0" y="695.0" type="qcurve" smooth="yes"/>
      <point x="800.0" y="695.0"/>
      <point x="910.0" y="851.0"/>
      <point x="910.0" y="1046.0" type="qcurve" smooth="yes"/>
      <point x="910.0" y="1217.0"/>
      <point x="777.0" y="1385.0"/>
      <point x="692.0" y="1385.0" type="qcurve" smooth="yes"/>
      <point x="601.0" y="1385.0"/>
      <point x="477.0" y="1237.0"/>
    </contour>
    <contour>
      <point x="679.0" y="70.0" type="line"/>
      <point x="1927.0" y="1535.0" type="line"/>
      <point x="2109.0" y="1383.0" type="line"/>
      <point x="859.0" y="-87.0" type="line"/>
    </contour>
    <contour>
      <point x="1552.0" y="498.0" type="qcurve" smooth="yes"/>
      <point x="1552.0" y="705.0"/>
      <point x="1881.0" y="939.0"/>
      <point x="2132.0" y="939.0" type="qcurve" smooth="yes"/>
      <point x="2382.0" y="939.0"/>
      <point x="2717.0" y="725.0"/>
      <point x="2717.0" y="502.0" type="qcurve" smooth="yes"/>
      <point x="2717.0" y="256.0"/>
      <point x="2381.0" y="-19.0"/>
      <point x="2131.0" y="-19.0" type="qcurve" smooth="yes"/>
      <point x="1879.0" y="-19.0"/>
      <point x="1552.0" y="235.0"/>
    </contour>
    <contour>
      <point x="1918.0" y="508.0" type="qcurve" smooth="yes"/>
      <point x="1918.0" y="283.0"/>
      <point x="2027.0" y="112.0"/>
      <point x="2131.0" y="112.0" type="qcurve" smooth="yes"/>
      <point x="2240.0" y="112.0"/>
      <point x="2350.0" y="265.0"/>
      <point x="2350.0" y="502.0" type="qcurve" smooth="yes"/>
      <point x="2350.0" y="675.0"/>
      <point x="2217.0" y="805.0"/>
      <point x="2131.0" y="805.0" type="qcurve" smooth="yes"/>
      <point x="2040.0" y="805.0"/>
      <point x="1915.0" y="695.0"/>
    </contour>
    <contour>
      <point x="2807.0" y="498.0" type="qcurve" smooth="yes"/>
      <point x="2807.0" y="705.0"/>
      <point x="3136.0" y="939.0"/>
      <point x="3387.0" y="939.0" type="qcurve" smooth="yes"/>
      <point x="3637.0" y="939.0"/>
      <point x="3972.0" y="725.0"/>
      <point x="3972.0" y="502.0" type="qcurve" smooth="yes"/>
      <point x="3972.0" y="256.0"/>
      <point x="3636.0" y="-19.0"/>
      <point x="3386.0" y="-19.0" type="qcurve" smooth="yes"/>
      <point x="3134.0" y="-19.0"/>
      <point x="2807.0" y="235.0"/>
    </contour>
    <contour>
      <point x="3173.0" y="508.0" type="qcurve" smooth="yes"/>
      <point x="3173.0" y="283.0"/>
      <point x="3282.0" y="112.0"/>
      <point x="3386.0" y="112.0" type="qcurve" smooth="yes"/>
      <point x="3495.0" y="112.0"/>
      <point x="3605.0" y="265.0"/>
      <point x="3605.0" y="502.0" type="qcurve" smooth="yes"/>
      <point x="3605.0" y="675.0"/>
      <point x="3472.0" y="805.0"/>
      <point x="3386.0" y="805.0" type="qcurve" smooth="yes"/>
      <point x="3295.0" y="805.0"/>
      <point x="3170.0" y="695.0"/>
    </contour>
  </outline>
</glyph>
<glyph name="commercialMinusSign" format="2">
  <advance width="1514"/>
  <unicode hex="2052"/>
  <outline>
    <contour>
      <point x="179.0" y="55.0" type="line"/>
      <point x="1161.0" y="1558.0" type="line"/>
      <point x="1322.0" y="1452.0" type="line"/>
      <point x="344.0" y="-45.0" type="line"/>
    </contour>
    <contour>
      <point x="941.0" y="229.0" type="qcurve" smooth="yes"/>
      <point x="941.0" y="330.0"/>
      <point x="1083.0" y="481.0"/>
      <point x="1192.0" y="481.0" type="qcurve" smooth="yes"/>
      <point x="1304.0" y="481.0"/>
      <point x="1445.0" y="330.0"/>
      <point x="1445.0" y="229.0" type="qcurve" smooth="yes"/>
      <point x="1445.0" y="129.0"/>
      <point x="1304.0" y="-22.0"/>
      <point x="1192.0" y="-22.0" type="qcurve" smooth="yes"/>
      <point x="1083.0" y="-22.0"/>
      <point x="941.0" y="129.0"/>
    </contour>
    <contour>
      <point x="42.0" y="1266.0" type="qcurve" smooth="yes"/>
      <point x="42.0" y="1367.0"/>
      <point x="183.0" y="1518.0"/>
      <point x="295.0" y="1518.0" type="qcurve" smooth="yes"/>
      <point x="405.0" y="1518.0"/>
      <point x="547.0" y="1367.0"/>
      <point x="547.0" y="1266.0" type="qcurve" smooth="yes"/>
      <point x="547.0" y="1166.0"/>
      <point x="405.0" y="1015.0"/>
      <point x="295.0" y="1015.0" type="qcurve" smooth="yes"/>
      <point x="183.0" y="1015.0"/>
      <point x="42.0" y="1166.0"/>
    </contour>
  </outline>
</glyph>
<glyph name="euro" format="2">
  <advance width="1848"/>
  <unicode hex="20AC"/>
  <outline>
    <contour>
      <point x="266.0" y="746.0" type="qcurve" smooth="yes"/>
      <point x="266.0" y="1122.0"/>
      <point x="794.0" y="1520.0"/>
      <point x="1240.0" y="1520.0" type="qcurve" smooth="yes"/>
      <point x="1390.0" y="1520.0"/>
      <point x="1730.0" y="1426.0"/>
      <point x="1826.0" y="1339.0" type="qcurve"/>
      <point x="1651.0" y="1148.0" type="line"/>
      <point x="1588.0" y="1199.0"/>
      <point x="1367.0" y="1276.0"/>
      <point x="1274.0" y="1276.0" type="qcurve" smooth="yes"/>
      <point x="1016.0" y="1276.0"/>
      <point x="798.0" y="1003.0"/>
      <point x="797.0" y="773.0" type="qcurve" smooth="yes"/>
      <point x="796.0" y="464.0"/>
      <point x="1029.0" y="230.0"/>
      <point x="1288.0" y="230.0" type="qcurve" smooth="yes"/>
      <point x="1446.0" y="230.0"/>
      <point x="1632.0" y="348.0"/>
      <point x="1695.0" y="425.0" type="qcurve"/>
      <point x="1893.0" y="254.0" type="line"/>
      <point x="1772.0" y="113.0"/>
      <point x="1387.0" y="-19.0"/>
      <point x="1197.0" y="-19.0" type="qcurve" smooth="yes"/>
      <point x="741.0" y="-19.0"/>
      <point x="266.0" y="361.0"/>
    </contour>
    <contour>
      <point x="78.0" y="838.0" type="line"/>
      <point x="112.0" y="1034.0" type="line"/>
      <point x="1544.0" y="1034.0" type="line"/>
      <point x="1564.0" y="838.0" type="line"/>
    </contour>
    <contour>
      <point x="74.0" y="491.0" type="line"/>
      <point x="59.0" y="687.0" type="line"/>
      <point x="1548.0" y="687.0" type="line"/>
      <point x="1528.0" y="491.0" type="line"/>
    </contour>
  </outline>
</glyph>
<glyph name="guarani" format="2">
  <advance width="2056"/>
  <unicode hex="20B2"/>
  <outline>
    <contour>
      <point x="68.0" y="749.0" type="qcurve" smooth="yes"/>
      <point x="68.0" y="1114.0"/>
      <point x="686.0" y="1520.0"/>
      <point x="1191.0" y="1520.0" type="qcurve" smooth="yes"/>
      <point x="1527.0" y="1520.0"/>
      <point x="1881.0" y="1244.0"/>
      <point x="1894.0" y="1013.0" type="qcurve"/>
      <point x="1616.0" y="1013.0" type="line"/>
      <point x="1593.0" y="1130.0"/>
      <point x="1396.0" y="1274.0"/>
      <point x="1178.0" y="1274.0" type="qcurve" smooth="yes"/>
      <point x="931.0" y="1274.0"/>
      <point x="574.0" y="1033.0"/>
      <point x="576.0" y="764.0" type="qcurve" smooth="yes"/>
      <point x="579.0" y="494.0"/>
      <point x="830.0" y="174.0"/>
      <point x="1202.0" y="175.0" type="qcurve" smooth="yes"/>
      <point x="1329.0" y="175.0"/>
      <point x="1544.0" y="290.0"/>
      <point x="1544.0" y="334.0" type="qcurve" smooth="yes"/>
      <point x="1544.0" y="445.0" type="line" smooth="yes"/>
      <point x="1544.0" y="522.0"/>
      <point x="1433.0" y="515.0"/>
      <point x="1358.0" y="527.0" type="qcurve"/>
      <point x="1363.0" y="697.0" type="line"/>
      <point x="1911.0" y="697.0" type="line"/>
      <point x="1936.0" y="179.0" type="line"/>
      <point x="1844.0" y="91.0"/>
      <point x="1459.0" y="-44.0"/>
      <point x="1163.0" y="-44.0" type="qcurve" smooth="yes"/>
      <point x="598.0" y="-44.0"/>
      <point x="68.0" y="359.0"/>
    </contour>
    <contour>
      <point x="630.0" y="-190.0" type="line"/>
      <point x="722.0" y="106.0" type="line"/>
      <point x="753.0" y="101.0" type="line"/>
      <point x="1001.0" y="891.0" type="line"/>
      <point x="1180.0" y="823.0" type="line"/>
      <point x="951.0" y="74.0" type="line"/>
      <point x="985.0" y="70.0" type="line"/>
      <point x="910.0" y="-177.0" type="line"/>
    </contour>
    <contour>
      <point x="1209.0" y="1654.0" type="line"/>
      <point x="1464.0" y="1654.0" type="line"/>
      <point x="1397.0" y="1444.0" type="line"/>
      <point x="1372.0" y="1448.0" type="line"/>
      <point x="1180.0" y="823.0" type="line"/>
      <point x="1001.0" y="891.0" type="line"/>
      <point x="1178.0" y="1475.0" type="line"/>
      <point x="1154.0" y="1480.0" type="line"/>
    </contour>
  </outline>
</glyph>
<glyph name="cedi" format="2">
  <advance width="1882"/>
  <unicode hex="20B5"/>
  <outline>
    <contour>
      <point x="-13.0" y="733.0" type="qcurve" smooth="yes"/>
      <point x="-13.0" y="1135.0"/>
      <point x="519.0" y="1483.0"/>
      <point x="991.0" y="1483.0" type="qcurve" smooth="yes"/>
      <point x="1336.0" y="1483.0"/>
      <point x="1761.0" y="1184.0"/>
      <point x="1759.0" y="892.0" type="qcurve"/>
      <point x="1493.0" y="892.0" type="line"/>
      <point x="1474.0" y="1067.0"/>
      <point x="1232.0" y="1243.0"/>
      <point x="1036.0" y="1243.0" type="qcurve" smooth="yes"/>
      <point x="751.0" y="1243.0"/>
      <point x="505.0" y="1010.0"/>
      <point x="508.0" y="753.0" type="qcurve" smooth="yes"/>
      <point x="510.0" y="469.0"/>
      <point x="804.0" y="185.0"/>
      <point x="1082.0" y="185.0" type="qcurve" smooth="yes"/>
      <point x="1241.0" y="185.0"/>
      <point x="1483.0" y="332.0"/>
      <point x="1595.0" y="435.0" type="qcurve"/>
      <point x="1731.0" y="267.0" type="line"/>
      <point x="1560.0" y="96.0"/>
      <point x="1226.0" y="-20.0"/>
      <point x="996.0" y="-20.0" type="qcurve" smooth="yes"/>
      <point x="508.0" y="-20.0"/>
      <point x="-13.0" y="356.0"/>
    </contour>
    <contour>
      <point x="634.0" y="-104.0" type="line"/>
      <point x="715.0" y="125.0" type="line"/>
      <point x="725.0" y="120.0" type="line"/>
      <point x="979.0" y="911.0" type="line"/>
      <point x="1160.0" y="844.0" type="line"/>
      <point x="927.0" y="93.0" type="line"/>
      <point x="940.0" y="90.0" type="line"/>
      <point x="878.0" y="-90.0" type="line"/>
    </contour>
    <contour>
      <point x="1186.0" y="1580.0" type="line"/>
      <point x="1427.0" y="1580.0" type="line"/>
      <point x="1355.0" y="1357.0" type="line"/>
      <point x="1339.0" y="1361.0" type="line"/>
      <point x="1160.0" y="844.0" type="line"/>
      <point x="979.0" y="911.0" type="line"/>
      <point x="1140.0" y="1387.0" type="line"/>
      <point x="1127.0" y="1392.0" type="line"/>
    </contour>
  </outline>
</glyph>
<glyph name="liraTurkish" format="2">
  <advance width="1872"/>
  <unicode hex="20BA"/>
  <outline>
    <contour>
      <point x="350.0" y="-12.0" type="line"/>
      <point x="233.0" y="140.0" type="line"/>
      <point x="348.0" y="245.0" type="line"/>
      <point x="352.0" y="754.0" type="line"/>
      <point x="348.0" y="1311.0" type="line"/>
      <point x="94.0" y="1345.0" type="line"/>
      <point x="94.0" y="1500.0" type="line"/>
      <point x="589.0" y="1500.0" type="line"/>
      <point x="1111.0" y="1500.0" type="line"/>
      <point x="1114.0" y="1345.0" type="line"/>
      <point x="857.0" y="1311.0" type="line"/>
      <point x="852.0" y="754.0" type="line"/>
      <point x="856.0" y="279.0" type="line"/>
      <point x="905.0" y="245.0" type="line"/>
      <point x="1097.0" y="270.0"/>
      <point x="1529.0" y="451.0"/>
      <point x="1561.0" y="599.0" type="qcurve" smooth="yes"/>
      <point x="1608.0" y="768.0" type="line"/>
      <point x="1785.0" y="768.0" type="line"/>
      <point x="1721.0" y="323.0" type="line"/>
      <point x="1628.0" y="194.0"/>
      <point x="991.0" y="41.0"/>
      <point x="657.0" y="15.0" type="qcurve" smooth="yes"/>
    </contour>
    <contour>
      <point x="158.0" y="358.0" type="line"/>
      <point x="116.0" y="545.0" type="line"/>
      <point x="632.0" y="684.0" type="line"/>
      <point x="632.0" y="680.0" type="line"/>
      <point x="1302.0" y="851.0" type="line"/>
      <point x="1285.0" y="650.0" type="line"/>
      <point x="630.0" y="488.0" type="line"/>
      <point x="630.0" y="484.0" type="line"/>
    </contour>
    <contour>
      <point x="139.0" y="709.0" type="line"/>
      <point x="96.0" y="895.0" type="line"/>
      <point x="613.0" y="1034.0" type="line"/>
      <point x="613.0" y="1031.0" type="line"/>
      <point x="1341.0" y="1218.0" type="line"/>
      <point x="1320.0" y="1013.0" type="line"/>
      <point x="612.0" y="837.0" type="line"/>
      <point x="612.0" y="835.0" type="line"/>
    </contour>
  </outline>
</glyph>
<glyph name="ruble" format="2">
  <advance width="1916"/>
  <unicode hex="20BD"/>
  <outline>
    <contour>
      <point x="78.0" y="0.0" type="line"/>
      <point x="78.0" y="174.0" type="line"/>
      <point x="296.0" y="217.0" type="line"/>
      <point x="298.0" y="754.0" type="line"/>
      <point x="296.0" y="1272.0" type="line"/>
      <point x="98.0" y="1306.0" type="line"/>
      <point x="98.0" y="1500.0" type="line"/>
      <point x="1252.0" y="1500.0" type="line" smooth="yes"/>
      <point x="1524.0" y="1500.0"/>
      <point x="1821.0" y="1284.0"/>
      <point x="1821.0" y="1052.0" type="qcurve" smooth="yes"/>
      <point x="1821.0" y="765.0"/>
      <point x="1396.0" y="555.0"/>
      <point x="991.0" y="555.0" type="qcurve" smooth="yes"/>
      <point x="593.0" y="555.0"/>
      <point x="222.0" y="579.0"/>
      <point x="71.0" y="618.0" type="qcurve"/>
      <point x="80.0" y="811.0" type="line"/>
      <point x="276.0" y="770.0"/>
      <point x="763.0" y="744.0"/>
      <point x="997.0" y="744.0" type="qcurve" smooth="yes"/>
      <point x="1143.0" y="744.0"/>
      <point x="1270.0" y="871.0"/>
      <point x="1266.0" y="1053.0" type="qcurve" smooth="yes"/>
      <point x="1263.0" y="1182.0"/>
      <point x="1192.0" y="1282.0"/>
      <point x="1084.0" y="1282.0" type="qcurve" smooth="yes"/>
      <point x="869.0" y="1282.0" type="line"/>
      <point x="841.0" y="1262.0" type="line"/>
      <point x="839.0" y="764.0" type="line"/>
      <point x="841.0" y="222.0" type="line"/>
      <point x="1091.0" y="174.0" type="line"/>
      <point x="1091.0" y="0.0" type="line"/>
    </contour>
    <contour>
      <point x="66.0" y="289.0" type="line"/>
      <point x="66.0" y="475.0" type="line"/>
      <point x="1150.0" y="475.0" type="line"/>
      <point x="1119.0" y="279.0" type="line"/>
    </contour>
  </outline>
</glyph>
<glyph name="numero" format="2">
  <advance width="3429"/>
  <unicode hex="2116"/>
  <outline>
    <contour>
      <point x="35.0" y="0.0" type="line"/>
      <point x="35.0" y="173.0" type="line"/>
      <point x="238.0" y="210.0" type="line"/>
      <point x="248.0" y="754.0" type="line"/>
      <point x="251.0" y="1274.0" type="line"/>
      <point x="17.0" y="1319.0" type="line"/>
      <point x="17.0" y="1500.0" type="line"/>
      <point x="811.0" y="1500.0" type="line"/>
      <point x="1225.0" y="920.0" type="line"/>
      <point x="1526.0" y="457.0" type="line"/>
      <point x="1515.0" y="803.0" type="line"/>
      <point x="1516.0" y="1285.0" type="line"/>
      <point x="1317.0" y="1319.0" type="line"/>
      <point x="1317.0" y="1500.0" type="line"/>
      <point x="1919.0" y="1500.0" type="line"/>
      <point x="1919.0" y="1319.0" type="line"/>
      <point x="1733.0" y="1285.0" type="line"/>
      <point x="1723.0" y="779.0" type="line"/>
      <point x="1695.0" y="0.0" type="line"/>
      <point x="1281.0" y="0.0" type="line"/>
      <point x="828.0" y="651.0" type="line"/>
      <point x="464.0" y="1192.0" type="line"/>
      <point x="462.0" y="721.0" type="line"/>
      <point x="456.0" y="210.0" type="line"/>
      <point x="667.0" y="173.0" type="line"/>
      <point x="667.0" y="0.0" type="line"/>
    </contour>
    <contour>
      <point x="1980.0" y="972.0" type="qcurve" smooth="yes"/>
      <point x="1980.0" y="1241.0"/>
      <point x="2365.0" y="1519.0"/>
      <point x="2655.0" y="1519.0" type="qcurve" smooth="yes"/>
      <point x="2942.0" y="1519.0"/>
      <point x="3336.0" y="1261.0"/>
      <point x="3336.0" y="978.0" type="qcurve" smooth="yes"/>
      <point x="3336.0" y="710.0"/>
      <point x="2944.0" y="425.0"/>
      <point x="2661.0" y="425.0" type="qcurve" smooth="yes"/>
      <point x="2374.0" y="425.0"/>
      <point x="1980.0" y="688.0"/>
    </contour>
    <contour>
      <point x="2319.0" y="989.0" type="qcurve" smooth="yes"/>
      <point x="2320.0" y="823.0"/>
      <point x="2501.0" y="629.0"/>
      <point x="2657.0" y="629.0" type="qcurve" smooth="yes"/>
      <point x="2823.0" y="629.0"/>
      <point x="2995.0" y="803.0"/>
      <point x="2995.0" y="976.0" type="qcurve" smooth="yes"/>
      <point x="2995.0" y="1135.0"/>
      <point x="2814.0" y="1307.0"/>
      <point x="2658.0" y="1307.0" type="qcurve" smooth="yes"/>
      <point x="2489.0" y="1307.0"/>
      <point x="2318.0" y="1154.0"/>
    </contour>
    <contour>
      <point x="2069.0" y="188.0" type="qcurve" smooth="yes"/>
      <point x="2069.0" y="231.0"/>
      <point x="2197.0" y="280.0"/>
      <point x="2652.0" y="280.0" type="qcurve" smooth="yes"/>
      <point x="3114.0" y="280.0"/>
      <point x="3257.0" y="238.0"/>
      <point x="3257.0" y="188.0" type="qcurve" smooth="yes"/>
      <point x="3257.0" y="141.0"/>
      <point x="3113.0" y="88.0"/>
      <point x="2655.0" y="88.0" type="qcurve" smooth="yes"/>
      <point x="2198.0" y="88.0"/>
      <point x="2069.0" y="141.0"/>
    </contour>
  </outline>
</glyph>
<glyph name="leftanglebracket" format="2">
  <advance width="1155"/>
  <unicode hex="27E8"/>
  <outline>
    <contour>
      <point x="935.0" y="1508.0" type="line"/>
      <point x="1134.0" y="1192.0" type="line"/>
      <point x="530.0" y="692.0" type="line"/>
      <point x="1128.0" y="158.0" type="line"/>
      <point x="949.0" y="-155.0" type="line"/>
      <point x="47.0" y="568.0" type="line"/>
      <point x="47.0" y="785.0" type="line"/>
    </contour>
  </outline>
</glyph>
<glyph name="brevecomb.case" format="2">
  <advance width="1024"/>
  <outline>
    <contour>
      <point x="809.0" y="1958.0" type="qcurve"/>
      <point x="947.0" y="1943.0" type="line"/>
      <point x="947.0" y="1816.0"/>
      <point x="708.0" y="1599.0"/>
      <point x="514.0" y="1599.0" type="qcurve" smooth="yes"/>
      <point x="287.0" y="1599.0"/>
      <point x="68.0" y="1799.0"/>
      <point x="75.0" y="1935.0" type="qcurve"/>
      <point x="209.0" y="1960.0" type="line"/>
      <point x="239.0" y="1892.0"/>
      <point x="377.0" y="1789.0"/>
      <point x="515.0" y="1789.0" type="qcurve" smooth="yes"/>
      <point x="649.0" y="1789.0"/>
      <point x="789.0" y="1906.0"/>
    </contour>
  </outline>
</glyph>
<glyph name="cedillacomb.case" format="2">
  <advance width="1024"/>
  <outline>
    <contour>
      <point x="583.0" y="9.0" type="line"/>
      <point x="513.0" y="-96.0" type="line"/>
      <point x="555.0" y="-79.0"/>
      <point x="618.0" y="-76.0"/>
      <point x="651.0" y="-76.0" type="qcurve" smooth="yes"/>
      <point x="791.0" y="-76.0"/>
      <point x="988.0" y="-175.0"/>
      <point x="988.0" y="-292.0" type="qcurve" smooth="yes"/>
      <point x="988.0" y="-388.0"/>
      <point x="745.0" y="-524.0"/>
      <point x="530.0" y="-524.0" type="qcurve" smooth="yes"/>
      <point x="420.0" y="-524.0"/>
      <point x="243.0" y="-471.0"/>
      <point x="172.0" y="-448.0" type="qcurve"/>
      <point x="234.0" y="-341.0" type="line"/>
      <point x="304.0" y="-375.0"/>
      <point x="435.0" y="-386.0"/>
      <point x="531.0" y="-386.0" type="qcurve" smooth="yes"/>
      <point x="632.0" y="-386.0"/>
      <point x="727.0" y="-347.0"/>
      <point x="727.0" y="-290.0" type="qcurve" smooth="yes"/>
      <point x="727.0" y="-254.0"/>
      <point x="639.0" y="-216.0"/>
      <point x="573.0" y="-216.0" type="qcurve" smooth="yes"/>
      <point x="540.0" y="-216.0"/>
      <point x="465.0" y="-227.0"/>
      <point x="439.0" y="-237.0" type="qcurve"/>
      <point x="335.0" y="-154.0" type="line"/>
      <point x="428.0" y="9.0" type="line"/>
    </contour>
  </outline>
</glyph>
<glyph name="circumflexcombstack.case" format="2">
  <advance width="1024"/>
  <outline>
    <contour>
      <point x="513.0" y="2081.0" type="qcurve" smooth="yes"/>
      <point x="566.0" y="2081.0"/>
      <point x="690.0" y="1998.0"/>
      <point x="752.0" y="1929.0" type="qcurve" smooth="yes"/>
      <point x="984.0" y="1649.0" type="line"/>
      <point x="873.0" y="1555.0" type="line"/>
      <point x="513.0" y="1823.0" type="line"/>
      <point x="141.0" y="1541.0" type="line"/>
      <point x="42.0" y="1649.0" type="line"/>
      <point x="274.0" y="1929.0" type="line" smooth="yes"/>
      <point x="331.0" y="1996.0"/>
      <point x="459.0" y="2081.0"/>
    </contour>
  </outline>
</glyph>
<glyph name="dotaccentcomb.case" format="2">
  <advance width="1024"/>
  <outline>
    <contour>
      <point x="324.0" y="1759.0" type="qcurve" smooth="yes"/>
      <point x="324.0" y="1846.0"/>
      <point x="422.0" y="1947.0"/>
      <point x="513.0" y="1947.0" type="qcurve" smooth="yes"/>
      <point x="601.0" y="1947.0"/>
      <point x="702.0" y="1841.0"/>
      <point x="702.0" y="1759.0" type="qcurve" smooth="yes"/>
      <point x="702.0" y="1674.0"/>
      <point x="608.0" y="1575.0"/>
      <point x="513.0" y="1575.0" type="qcurve" smooth="yes"/>
      <point x="426.0" y="1575.0"/>
      <point x="324.0" y="1677.0"/>
    </contour>
  </outline>
</glyph>
<glyph name="eight.tab" format="2">
  <advance width="1923"/>
  <outline>
    <contour>
      <point x="85.0" y="351.0" type="qcurve" smooth="yes"/>
      <point x="85.0" y="511.0"/>
      <point x="466.0" y="747.0"/>
      <point x="789.0" y="827.0" type="qcurve"/>
      <point x="956.0" y="753.0" type="line"/>
      <point x="828.0" y="667.0"/>
      <point x="633.0" y="459.0"/>
      <point x="633.0" y="336.0" type="qcurve" smooth="yes"/>
      <point x="633.0" y="236.0"/>
      <point x="797.0" y="168.0"/>
      <point x="948.0" y="168.0" type="qcurve" smooth="yes"/>
      <point x="1124.0" y="168.0"/>
      <point x="1298.0" y="260.0"/>
      <point x="1298.0" y="346.0" type="qcurve" smooth="yes"/>
      <point x="1298.0" y="434.0"/>
      <point x="1074.0" y="580.0"/>
      <point x="809.0" y="649.0" type="qcurve" smooth="yes"/>
      <point x="477.0" y="738.0"/>
      <point x="229.0" y="963.0"/>
      <point x="233.0" y="1137.0" type="qcurve" smooth="yes"/>
      <point x="237.0" y="1308.0"/>
      <point x="569.0" y="1505.0"/>
      <point x="947.0" y="1505.0" type="qcurve" smooth="yes"/>
      <point x="1324.0" y="1505.0"/>
      <point x="1685.0" y="1345.0"/>
      <point x="1685.0" y="1189.0" type="qcurve" smooth="yes"/>
      <point x="1685.0" y="1056.0"/>
      <point x="1386.0" y="846.0"/>
      <point x="1118.0" y="783.0" type="qcurve"/>
      <point x="924.0" y="855.0" type="line"/>
      <point x="1087.0" y="923.0"/>
      <point x="1227.0" y="1098.0"/>
      <point x="1227.0" y="1189.0" type="qcurve" smooth="yes"/>
      <point x="1227.0" y="1260.0"/>
      <point x="1073.0" y="1293.0"/>
      <point x="936.0" y="1293.0" type="qcurve" smooth="yes"/>
      <point x="797.0" y="1293.0"/>
      <point x="695.0" y="1273.0"/>
      <point x="695.0" y="1207.0" type="qcurve" smooth="yes"/>
      <point x="695.0" y="1125.0"/>
      <point x="885.0" y="1002.0"/>
      <point x="1186.0" y="925.0" type="qcurve" smooth="yes"/>
      <point x="1491.0" y="847.0"/>
      <point x="1836.0" y="607.0"/>
      <point x="1836.0" y="414.0" type="qcurve" smooth="yes"/>
      <point x="1836.0" y="223.0"/>
      <point x="1410.0" y="-30.0"/>
      <point x="953.0" y="-30.0" type="qcurve" smooth="yes"/>
      <point x="516.0" y="-30.0"/>
      <point x="85.0" y="174.0"/>
    </contour>
  </outline>
</glyph>
<glyph name="engtail" format="2">
  <advance width="1030"/>
  <outline>
    <contour>
      <point x="518.0" y="190.0" type="line"/>
      <point x="992.0" y="190.0" type="line"/>
      <point x="992.0" y="-34.0" type="line" smooth="yes"/>
      <point x="992.0" y="-251.0"/>
      <point x="681.0" y="-443.0"/>
      <point x="494.0" y="-443.0" type="qcurve" smooth="yes"/>
      <point x="353.0" y="-443.0"/>
      <point x="93.0" y="-359.0"/>
      <point x="45.0" y="-327.0" type="qcurve"/>
      <point x="103.0" y="-127.0" type="line"/>
      <point x="146.0" y="-154.0"/>
      <point x="253.0" y="-182.0"/>
      <point x="295.0" y="-182.0" type="qcurve" smooth="yes"/>
      <point x="361.0" y="-182.0"/>
      <point x="461.0" y="-92.0"/>
      <point x="461.0" y="-6.0" type="qcurve" smooth="yes"/>
      <point x="461.0" y="73.0"/>
      <point x="461.0" y="150.0"/>
      <point x="461.0" y="150.0" type="qcurve"/>
    </contour>
  </outline>
</glyph>
<glyph name="four.lf" format="2">
  <advance width="1737"/>
  <outline>
    <contour>
      <point x="18.0" y="536.0" type="line"/>
      <point x="950.0" y="1450.0" type="line"/>
      <point x="1333.0" y="1452.0" type="line"/>
      <point x="1419.0" y="1367.0" type="line"/>
      <point x="1400.0" y="523.0" type="line"/>
      <point x="1412.0" y="209.0" type="line"/>
      <point x="1673.0" y="174.0" type="line"/>
      <point x="1673.0" y="0.0" type="line"/>
      <point x="564.0" y="0.0" type="line"/>
      <point x="564.0" y="174.0" type="line"/>
      <point x="896.0" y="209.0" type="line"/>
      <point x="896.0" y="521.0" type="line"/>
      <point x="890.0" y="1148.0" type="line"/>
      <point x="308.0" y="607.0" type="line"/>
      <point x="310.0" y="588.0" type="line"/>
      <point x="1655.0" y="620.0" type="line"/>
      <point x="1655.0" y="422.0" type="line"/>
      <point x="46.0" y="371.0" type="line"/>
    </contour>
  </outline>
</glyph>
<glyph name="gravecomb.case" format="2">
  <advance width="1024"/>
  <outline>
    <contour>
      <point x="135.0" y="1968.0" type="qcurve" smooth="yes"/>
      <point x="135.0" y="2012.0"/>
      <point x="216.0" y="2113.0"/>
      <point x="293.0" y="2113.0" type="qcurve" smooth="yes"/>
      <point x="343.0" y="2113.0"/>
      <point x="435.0" y="2045.0"/>
      <point x="484.0" y="1984.0" type="qcurve" smooth="yes"/>
      <point x="716.0" y="1733.0" type="line"/>
      <point x="618.0" y="1615.0" type="line"/>
      <point x="259.0" y="1804.0" type="line" smooth="yes"/>
      <point x="203.0" y="1834.0"/>
      <point x="135.0" y="1934.0"/>
    </contour>
  </outline>
</glyph>
<glyph name="gravecombstack.case" format="2">
  <advance width="1024"/>
  <outline>
    <contour>
      <point x="44.0" y="1841.0" type="qcurve" smooth="yes"/>
      <point x="34.0" y="1870.0"/>
      <point x="71.0" y="1968.0"/>
      <point x="153.0" y="1985.0" type="qcurve" smooth="yes"/>
      <point x="202.0" y="2002.0"/>
      <point x="326.0" y="1991.0"/>
      <point x="389.0" y="1996.0" type="qcurve" smooth="yes"/>
      <point x="868.0" y="1787.0" type="line"/>
      <point x="848.0" y="1620.0" type="line"/>
      <point x="291.0" y="1664.0" type="line" smooth="yes"/>
      <point x="198.0" y="1679.0"/>
      <point x="53.0" y="1777.0"/>
    </contour>
  </outline>
</glyph>
<glyph name="hookabovecombstack.case" format="2">
  <advance width="1024"/>
  <outline>
    <contour>
      <point x="393.0" y="1543.0" type="line"/>
      <point x="393.0" y="1683.0" type="line"/>
      <point x="486.0" y="1771.0" type="line"/>
      <point x="499.0" y="1765.0"/>
      <point x="524.0" y="1760.0"/>
      <point x="542.0" y="1760.0" type="qcurve" smooth="yes"/>
      <point x="588.0" y="1760.0"/>
      <point x="637.0" y="1788.0"/>
      <point x="637.0" y="1819.0" type="qcurve" smooth="yes"/>
      <point x="637.0" y="1849.0"/>
      <point x="565.0" y="1868.0"/>
      <point x="526.0" y="1868.0" type="qcurve" smooth="yes"/>
      <point x="469.0" y="1868.0"/>
      <point x="362.0" y="1843.0"/>
      <point x="327.0" y="1829.0" type="qcurve"/>
      <point x="268.0" y="1973.0" type="line"/>
      <point x="349.0" y="2028.0"/>
      <point x="485.0" y="2061.0"/>
      <point x="563.0" y="2061.0" type="qcurve" smooth="yes"/>
      <point x="696.0" y="2061.0"/>
      <point x="847.0" y="1943.0"/>
      <point x="847.0" y="1836.0" type="qcurve" smooth="yes"/>
      <point x="847.0" y="1720.0"/>
      <point x="724.0" y="1616.0"/>
      <point x="641.0" y="1616.0" type="qcurve" smooth="yes"/>
      <point x="611.0" y="1616.0"/>
      <point x="574.0" y="1620.0"/>
      <point x="559.0" y="1622.0" type="qcurve"/>
      <point x="559.0" y="1543.0" type="line"/>
    </contour>
  </outline>
</glyph>
<glyph name="horizontalbarlc" format="2">
  <advance width="1543"/>
  <outline>
    <contour>
      <point x="570.0" y="635.0" type="line"/>
      <point x="11.0" y="625.0" type="line"/>
      <point x="25.0" y="767.0" type="line"/>
      <point x="585.0" y="757.0" type="line"/>
      <point x="1127.0" y="767.0" type="line"/>
      <point x="1127.0" y="625.0" type="line"/>
    </contour>
  </outline>
</glyph>
<glyph name="hungarumlautcomb.case" format="2">
  <advance width="1024"/>
  <outline>
    <contour>
      <point x="820.0" y="1957.0" type="qcurve" smooth="yes"/>
      <point x="820.0" y="1928.0"/>
      <point x="741.0" y="1819.0"/>
      <point x="690.0" y="1796.0" type="qcurve" smooth="yes"/>
      <point x="305.0" y="1615.0" type="line"/>
      <point x="198.0" y="1712.0" type="line"/>
      <point x="465.0" y="1970.0" type="line" smooth="yes"/>
      <point x="511.0" y="2019.0"/>
      <point x="638.0" y="2084.0"/>
      <point x="682.0" y="2084.0" type="qcurve" smooth="yes"/>
      <point x="754.0" y="2084.0"/>
      <point x="820.0" y="1995.0"/>
    </contour>
    <contour>
      <point x="1310.0" y="1957.0" type="qcurve" smooth="yes"/>
      <point x="1310.0" y="1928.0"/>
      <point x="1232.0" y="1818.0"/>
      <point x="1180.0" y="1796.0" type="qcurve" smooth="yes"/>
      <point x="789.0" y="1615.0" type="line"/>
      <point x="689.0" y="1712.0" type="line"/>
      <point x="947.0" y="1970.0" type="line" smooth="yes"/>
      <point x="992.0" y="2019.0"/>
      <point x="1128.0" y="2084.0"/>
      <point x="1173.0" y="2084.0" type="qcurve" smooth="yes"/>
      <point x="1244.0" y="2084.0"/>
      <point x="1310.0" y="1995.0"/>
    </contour>
  </outline>
</glyph>
<glyph name="nine.tab" format="2">
  <advance width="1923"/>
  <outline>
    <contour>
      <point x="1830.0" y="817.0" type="qcurve" smooth="yes"/>
      <point x="1830.0" y="418.0"/>
      <point x="1101.0" y="-58.0"/>
      <point x="399.0" y="-44.0" type="qcurve"/>
      <point x="419.0" y="192.0" type="line"/>
      <point x="817.0" y="175.0"/>
      <point x="1288.0" y="546.0"/>
      <point x="1286.0" y="858.0" type="qcurve" smooth="yes"/>
      <point x="1284.0" y="1165.0"/>
      <point x="1161.0" y="1330.0"/>
      <point x="994.0" y="1330.0" type="qcurve" smooth="yes"/>
      <point x="785.0" y="1330.0"/>
      <point x="608.0" y="1190.0"/>
      <point x="608.0" y="1016.0" type="qcurve" smooth="yes"/>
      <point x="608.0" y="831.0"/>
      <point x="714.0" y="710.0"/>
      <point x="890.0" y="710.0" type="qcurve" smooth="yes"/>
      <point x="936.0" y="710.0"/>
      <point x="1053.0" y="730.0"/>
      <point x="1083.0" y="743.0" type="qcurve"/>
      <point x="1122.0" y="602.0" type="line"/>
      <point x="1086.0" y="577.0"/>
      <point x="882.0" y="513.0"/>
      <point x="746.0" y="513.0" type="qcurve" smooth="yes"/>
      <point x="441.0" y="513.0"/>
      <point x="128.0" y="744.0"/>
      <point x="128.0" y="1049.0" type="qcurve" smooth="yes"/>
      <point x="128.0" y="1235.0"/>
      <point x="596.0" y="1528.0"/>
      <point x="988.0" y="1528.0" type="qcurve" smooth="yes"/>
      <point x="1409.0" y="1528.0"/>
      <point x="1830.0" y="1207.0"/>
    </contour>
  </outline>
</glyph>
<glyph name="ogonekcomb.case" format="2">
  <advance width="1024"/>
  <outline>
    <contour>
      <point x="367.0" y="-258.0" type="qcurve" smooth="yes"/>
      <point x="367.0" y="-158.0"/>
      <point x="503.0" y="-45.0"/>
      <point x="665.0" y="65.0" type="qcurve" smooth="yes"/>
      <point x="669.0" y="63.0" type="line"/>
      <point x="751.0" y="-1.0" type="line"/>
      <point x="755.0" y="7.0" type="line" smooth="yes"/>
      <point x="655.0" y="-76.0"/>
      <point x="583.0" y="-184.0"/>
      <point x="583.0" y="-238.0" type="qcurve" smooth="yes"/>
      <point x="583.0" y="-292.0"/>
      <point x="687.0" y="-351.0"/>
      <point x="765.0" y="-351.0" type="qcurve" smooth="yes"/>
      <point x="849.0" y="-351.0"/>
      <point x="950.0" y="-309.0"/>
      <point x="1007.0" y="-270.0" type="qcurve"/>
      <point x="1070.0" y="-344.0" type="line"/>
      <point x="1023.0" y="-376.0"/>
      <point x="832.0" y="-478.0"/>
      <point x="683.0" y="-478.0" type="qcurve" smooth="yes"/>
      <point x="502.0" y="-478.0"/>
      <point x="367.0" y="-368.0"/>
    </contour>
  </outline>
</glyph>
<glyph name="two.lf" format="2">
  <advance width="1761"/>
  <outline>
    <contour>
      <point x="83.0" y="0.0" type="line"/>
      <point x="83.0" y="157.0" type="line"/>
      <point x="90.0" y="290.0"/>
      <point x="350.0" y="596.0"/>
      <point x="604.0" y="704.0" type="qcurve" smooth="yes"/>
      <point x="818.0" y="786.0"/>
      <point x="1012.0" y="945.0"/>
      <point x="1012.0" y="1057.0" type="qcurve" smooth="yes"/>
      <point x="1012.0" y="1136.0"/>
      <point x="836.0" y="1220.0"/>
      <point x="655.0" y="1220.0" type="qcurve" smooth="yes"/>
      <point x="552.0" y="1220.0"/>
      <point x="313.0" y="1158.0"/>
      <point x="213.0" y="1103.0" type="qcurve"/>
      <point x="112.0" y="1323.0" type="line"/>
      <point x="218.0" y="1397.0"/>
      <point x="638.0" y="1526.0"/>
      <point x="894.0" y="1526.0" type="qcurve" smooth="yes"/>
      <point x="1242.0" y="1526.0"/>
      <point x="1560.0" y="1308.0"/>
      <point x="1565.0" y="1133.0" type="qcurve" smooth="yes"/>
      <point x="1571.0" y="962.0"/>
      <point x="1400.0" y="758.0"/>
      <point x="1007.0" y="592.0" type="qcurve" smooth="yes"/>
      <point x="724.0" y="491.0"/>
      <point x="496.0" y="415.0"/>
      <point x="460.0" y="358.0" type="qcurve"/>
      <point x="460.0" y="339.0" type="line"/>
      <point x="1613.0" y="339.0" type="line"/>
      <point x="1613.0" y="0.0" type="line"/>
    </contour>
  </outline>
</glyph>
